<svg width="1994" height="62" viewBox="0 0 1994 62" fill="none" xmlns="http://www.w3.org/2000/svg">
<rect x="997" y="12" width="997" height="50" fill="#DFDBCF"/>
<rect y="12" width="997" height="50" fill="#DFDBCF"/>
<rect x="1017" y="32" width="153" height="10" rx="3" fill="#F9F7F2" stroke="black" stroke-width="2"/>
<rect x="20" y="32" width="153" height="10" rx="3" fill="#F9F7F2" stroke="black" stroke-width="2"/>
<rect x="1221" y="32" width="153" height="10" rx="3" fill="#F9F7F2" stroke="black" stroke-width="2"/>
<rect x="224" y="32" width="153" height="10" rx="3" fill="#F9F7F2" stroke="black" stroke-width="2"/>
<rect x="1425" y="32" width="153" height="10" rx="3" fill="#F9F7F2" stroke="black" stroke-width="2"/>
<rect x="428" y="32" width="153" height="10" rx="3" fill="#F9F7F2" stroke="black" stroke-width="2"/>
<rect x="1629" y="32" width="153" height="10" rx="3" fill="#F9F7F2" stroke="black" stroke-width="2"/>
<rect x="632" y="32" width="153" height="10" rx="3" fill="#F9F7F2" stroke="black" stroke-width="2"/>
<rect x="1833" y="32" width="153" height="10" rx="3" fill="#F9F7F2" stroke="black" stroke-width="2"/>
<rect x="836" y="32" width="153" height="10" rx="3" fill="#F9F7F2" stroke="black" stroke-width="2"/>
<path d="M1203.5 23.5H1220" stroke="#554E37" stroke-width="2" stroke-linecap="round"/>
<path d="M206.5 23.5H223" stroke="#554E37" stroke-width="2" stroke-linecap="round"/>
<path d="M1335 47H1351.5" stroke="#554E37" stroke-width="2" stroke-linecap="round"/>
<path d="M338 47H354.5" stroke="#554E37" stroke-width="2" stroke-linecap="round"/>
<path d="M1348 51H1364.5" stroke="#554E37" stroke-width="2" stroke-linecap="round"/>
<path d="M351 51H367.5" stroke="#554E37" stroke-width="2" stroke-linecap="round"/>
<path d="M1008 51H1024.5" stroke="#554E37" stroke-width="2" stroke-linecap="round"/>
<path d="M11 51H27.5" stroke="#554E37" stroke-width="2" stroke-linecap="round"/>
<path d="M1662 24H1678.5" stroke="#554E37" stroke-width="2" stroke-linecap="round"/>
<path d="M665 24H681.5" stroke="#554E37" stroke-width="2" stroke-linecap="round"/>
<path d="M1620 24H1636.5" stroke="#554E37" stroke-width="2" stroke-linecap="round"/>
<path d="M623 24H639.5" stroke="#554E37" stroke-width="2" stroke-linecap="round"/>
<path d="M1396 24H1412.5" stroke="#554E37" stroke-width="2" stroke-linecap="round"/>
<path d="M399 24H415.5" stroke="#554E37" stroke-width="2" stroke-linecap="round"/>
<path d="M1916 24H1932.5" stroke="#554E37" stroke-width="2" stroke-linecap="round"/>
<path d="M919 24H935.5" stroke="#554E37" stroke-width="2" stroke-linecap="round"/>
<path d="M1934 49H1950.5" stroke="#554E37" stroke-width="2" stroke-linecap="round"/>
<path d="M937 49H953.5" stroke="#554E37" stroke-width="2" stroke-linecap="round"/>
</svg>
