<svg width="1072" height="701" viewBox="0 0 1072 701" fill="none" xmlns="http://www.w3.org/2000/svg">
<g clip-path="url(#clip0_3581_477)">
<path d="M348.124 112.738C374.028 118.833 419.618 141.08 394.751 181.306C399.931 178.868 409.379 179.478 405.722 201.42C412.179 201.981 424.121 205.854 424.244 216.755C427.243 184.742 445.375 133.851 497.146 165.764C496.536 146.261 502.448 115.298 530.973 147.48C544.686 135.594 577.416 121.515 598.626 160.279C619.837 199.043 575.77 227.019 551.086 236.161C561.447 235.551 581.073 238.538 576.685 255.36C585.218 250.179 605.026 244.206 615.997 261.76C624.031 274.614 620.789 282.369 615.964 286.319C622.77 283.44 632.006 281.937 637.025 289.187C640.543 294.27 641.084 298.36 640.406 301.345C653.411 282.473 679.753 255.982 703.764 269.988C730.094 285.347 726.316 316.005 721.135 329.414C737.591 328.499 767.395 334.533 754.962 365.983C746.635 387.045 737.023 398.895 729.752 404.883C740.533 400.202 755.013 399.304 762.276 417.181C768.066 393.715 788.057 350.624 821.701 365.983C855.345 381.342 857.662 406.515 854.614 417.181C863.757 409.562 882.956 398.53 886.613 415.352C890.27 432.174 880.822 441.865 875.642 444.608C893.317 436.38 929.399 426.323 932.325 451.922C932.325 467.281 918.307 493.063 911.298 504.034C945.673 465.27 970.723 495.806 978.952 515.919C1001.62 512.262 993.275 533.289 986.265 544.26C1079.88 528.17 1078.91 731.137 1066.72 769.536H-214.079C-214.406 770.568 -214.733 770.624 -215.048 769.536H-214.079C-210.926 759.587 -207.759 658.987 -215.048 619.228C-223.093 575.345 -178.174 589.363 -154.708 601.858C-194.203 557.243 -138.252 523.538 -105.339 512.262C-114.116 474.961 -66.9409 472.95 -42.2563 476.606C-59.8096 451.008 -34.9424 444.608 -20.3147 444.608C-32.7484 380.245 42.768 410.476 82.0804 433.637C66.7211 419.009 81.1659 397.067 90.3081 387.925C59.5893 409.867 58.0049 382.44 61.0526 365.983C-1.11568 335.265 44.2916 295.282 74.7662 279.13C68.0618 271.207 55.9329 251.52 61.0526 236.161C65.6219 222.453 81.6968 238.311 91.5998 250.978C90.3322 245.186 89.4984 233.234 90.3081 210.562C91.7709 169.604 149.429 199.591 178.075 219.705C166.8 210.562 143.151 187.889 138.763 170.336C134.375 152.782 149.734 147.784 157.962 147.48C152.781 144.127 142.786 131.023 144.248 105.424C145.711 79.8257 176.552 99.6342 191.789 112.738C189.351 90.1871 195.446 42.1589 239.33 30.4566C275.856 20.7164 293.38 61.8148 299.812 94.497C301.358 87.917 305.524 80.3106 314.297 72.5117C334.045 54.9583 345.077 92.0156 348.124 112.738Z" fill="#FCFBF7"/>
<path d="M348.124 112.738C374.028 118.833 419.618 141.08 394.751 181.306C399.931 178.868 409.379 179.478 405.722 201.42C412.731 202.029 426.201 206.54 424.006 219.705C426.14 188.011 443.754 132.852 497.146 165.764C496.536 146.261 502.448 115.298 530.973 147.48C544.686 135.594 577.416 121.515 598.626 160.279C619.837 199.043 575.77 227.019 551.086 236.161C561.447 235.551 581.073 238.538 576.685 255.36C585.218 250.179 605.026 244.206 615.997 261.76C626.968 279.313 616.911 287.358 610.512 289.187C616.607 285.225 630.442 279.679 637.025 289.187C643.607 298.695 639.767 304.729 637.025 306.558C648.3 287.968 677.434 254.629 703.764 269.988C730.094 285.347 726.316 316.005 721.135 329.414C737.591 328.499 767.395 334.533 754.962 365.983C742.528 397.433 727.23 408.343 721.135 409.867C730.887 402.553 752.768 393.776 762.276 417.181C768.066 393.715 788.057 350.624 821.701 365.983C855.346 381.343 857.662 406.515 854.614 417.181C863.757 409.562 882.956 398.53 886.613 415.352C890.27 432.174 880.822 441.865 875.642 444.608C893.317 436.38 929.399 426.323 932.325 451.922C932.325 467.281 918.307 493.063 911.298 504.034C945.673 465.27 970.723 495.806 978.952 515.919C1001.62 512.262 993.275 533.289 986.265 544.26C1079.88 528.17 1078.91 731.137 1066.72 769.536H-215.048C-211.696 781.116 -207.003 663.112 -215.048 619.228C-223.093 575.345 -178.174 589.363 -154.708 601.858C-194.203 557.243 -138.252 523.538 -105.339 512.262C-114.116 474.961 -66.9409 472.95 -42.2563 476.606C-59.8096 451.008 -34.9424 444.608 -20.3147 444.608C-32.7484 380.245 42.768 410.476 82.0804 433.637C66.7211 419.009 81.1659 397.067 90.3081 387.925C59.5893 409.867 58.0049 382.44 61.0526 365.983C-1.11567 335.265 44.2916 295.282 74.7662 279.13C68.0618 271.207 55.9329 251.52 61.0526 236.161C66.1724 220.802 85.737 242.561 94.8794 255.36C92.7461 257.493 88.8453 251.52 90.3081 210.562C91.7709 169.604 149.429 199.591 178.075 219.705C166.8 210.562 143.151 187.889 138.763 170.336C134.375 152.782 149.734 147.784 157.962 147.48C152.781 144.127 142.786 131.023 144.248 105.424C145.711 79.8257 176.552 99.6342 191.789 112.738C189.351 90.1871 195.446 42.1589 239.33 30.4566C283.213 18.7543 299.67 80.4352 302.412 112.738C298.146 106.643 294.55 90.0652 314.297 72.5117C334.045 54.9583 345.077 92.0156 348.124 112.738Z" stroke="black" stroke-width="3.65697"/>
</g>
<defs>
<clipPath id="clip0_3581_477">
<rect width="1072" height="701" fill="white"/>
</clipPath>
</defs>
</svg>
