<svg width="1239" height="669" viewBox="0 0 1239 669" fill="none" xmlns="http://www.w3.org/2000/svg">
<g clip-path="url(#clip0_3586_532)">
<path d="M493.33 104.941C464.889 111.633 414.833 136.059 442.136 180.226C436.448 177.549 426.076 178.218 430.091 202.309C423.001 202.926 409.89 207.177 409.754 219.146C406.462 183.997 386.553 128.122 329.711 163.161C330.381 141.747 323.889 107.752 292.571 143.085C277.514 130.036 241.578 114.577 218.29 157.138C195.002 199.699 243.385 230.415 270.487 240.453C259.111 239.784 237.563 243.063 242.381 261.533C233.012 255.845 211.264 249.287 199.218 268.56C190.397 282.673 193.957 291.188 199.254 295.524C191.782 292.363 181.641 290.714 176.131 298.673C172.267 304.254 171.674 308.745 172.418 312.023C158.139 291.301 129.217 262.215 102.854 277.594C73.9445 294.457 78.0934 328.118 83.7816 342.84C65.7133 341.837 32.9895 348.462 46.6411 382.992C55.7836 406.117 66.3365 419.128 74.3206 425.702C62.4838 420.563 46.5846 419.577 38.6108 439.205C32.2534 413.441 10.3038 366.128 -26.6359 382.992C-63.5756 399.856 -66.1187 427.494 -62.7727 439.205C-72.8107 430.84 -93.8904 418.727 -97.9055 437.197C-101.921 455.667 -91.5481 466.307 -85.8599 469.319C-105.267 460.284 -144.883 449.243 -148.095 477.349C-148.095 494.213 -132.704 522.52 -125.008 534.565C-162.751 492.004 -190.255 525.531 -199.289 547.615C-224.183 543.599 -215.016 566.687 -207.32 578.732C-310.108 561.065 -309.038 783.915 -295.654 826.074H1111.67C1107.99 838.789 1169.97 717.297 1111.67 661.043C1076.42 627.03 1071.18 628.253 1045.42 641.971C1088.78 592.986 1027.35 555.979 991.212 543.599C1000.85 502.645 949.053 500.436 921.95 504.451C941.223 476.345 913.92 469.319 897.859 469.319C911.511 398.651 828.597 431.844 785.434 457.273C802.298 441.212 786.438 417.121 776.401 407.083C810.128 431.174 811.868 401.06 808.522 382.992C876.78 349.265 826.925 305.365 793.465 287.632C800.826 278.932 814.143 257.317 808.522 240.453C803.505 225.403 785.855 242.814 774.982 256.722C776.374 250.363 777.29 237.24 776.401 212.347C774.794 167.377 711.488 200.301 680.036 222.385C692.416 212.347 718.381 187.453 723.199 168.18C728.018 148.907 711.154 143.42 702.12 143.085C707.808 139.405 718.783 125.017 717.177 96.9105C715.571 68.8043 681.709 90.5532 664.979 104.941C667.656 80.1806 660.964 27.4479 612.782 14.5993C572.678 3.90495 553.437 49.0293 546.375 84.9128C544.678 77.6883 540.104 69.3368 530.471 60.7739C508.789 41.501 496.676 82.1882 493.33 104.941Z" fill="#FCFBF7"/>
<path d="M493.33 104.941C464.889 111.633 414.833 136.059 442.136 180.226C436.448 177.549 426.076 178.218 430.091 202.309C422.395 202.978 407.606 207.93 410.015 222.385C407.673 187.587 388.333 127.024 329.711 163.161C330.381 141.747 323.889 107.752 292.571 143.085C277.514 130.036 241.578 114.577 218.29 157.138C195.002 199.699 243.385 230.415 270.487 240.453C259.111 239.784 237.563 243.063 242.381 261.533C233.012 255.845 211.264 249.287 199.218 268.56C187.173 287.832 198.214 296.666 205.241 298.673C198.549 294.324 183.358 288.234 176.131 298.673C168.903 309.113 173.119 315.738 176.131 317.745C163.751 297.335 131.763 260.73 102.854 277.594C73.9445 294.457 78.0934 328.118 83.7816 342.84C65.7133 341.837 32.9895 348.462 46.6411 382.992C60.2927 417.523 77.0896 429.501 83.7816 431.174C73.0745 423.144 49.0503 413.508 38.6108 439.205C32.2535 413.441 10.3038 366.128 -26.6359 382.992C-63.5755 399.856 -66.1187 427.494 -62.7727 439.205C-72.8107 430.84 -93.8903 418.727 -97.9055 437.197C-101.921 455.667 -91.548 466.307 -85.8599 469.319C-105.267 460.284 -144.883 449.243 -148.095 477.349C-148.095 494.213 -132.704 522.52 -125.008 534.565C-162.751 492.004 -190.255 525.531 -199.289 547.615C-224.183 543.599 -215.015 566.687 -207.32 578.732C-310.108 561.065 -309.038 783.915 -295.654 826.074H1111.67C1107.99 838.789 1169.97 717.297 1111.67 661.043C1076.42 627.03 1071.18 628.253 1045.42 641.971C1088.78 592.986 1027.35 555.98 991.212 543.599C1000.85 502.645 949.053 500.436 921.95 504.451C941.223 476.345 913.92 469.319 897.859 469.319C911.511 398.651 828.597 431.844 785.434 457.273C802.298 441.212 786.438 417.121 776.401 407.083C810.128 431.174 811.868 401.061 808.522 382.992C876.78 349.265 826.925 305.365 793.465 287.632C800.826 278.932 814.143 257.317 808.522 240.453C802.9 223.589 781.419 247.48 771.382 261.533C773.724 263.875 778.007 257.317 776.401 212.347C774.794 167.377 711.488 200.301 680.036 222.385C692.416 212.347 718.381 187.453 723.199 168.18C728.018 148.907 711.154 143.42 702.12 143.085C707.808 139.405 718.783 125.017 717.177 96.9105C715.571 68.8043 681.709 90.5532 664.979 104.941C667.656 80.1806 660.964 27.4479 612.782 14.5993C564.6 1.75073 546.531 69.4735 543.52 104.941C548.204 98.2489 552.152 80.0468 530.471 60.7739C508.789 41.501 496.676 82.1882 493.33 104.941Z" stroke="black" stroke-width="5.2267"/>
</g>
<defs>
<clipPath id="clip0_3586_532">
<rect width="1239" height="669" fill="white"/>
</clipPath>
</defs>
</svg>
