<svg width="769" height="497" viewBox="0 0 769 497" fill="none" xmlns="http://www.w3.org/2000/svg">
<path d="M122.33 -44.0591C93.8892 -37.3671 43.8333 -12.9415 71.1365 31.2255C65.4483 28.5487 55.0758 29.2179 59.0909 53.309C52.0008 53.9256 38.8896 58.1774 38.754 70.1465C35.4619 34.9972 15.5527 -20.8781 -41.2885 14.161C-40.6193 -7.2533 -47.1106 -41.2485 -78.429 -5.9149C-93.486 -18.9642 -129.422 -34.4227 -152.71 8.13823C-175.998 50.6991 -127.615 81.4153 -100.513 91.4532C-111.889 90.7841 -133.437 94.0631 -128.619 112.533C-137.987 106.845 -159.736 100.287 -171.782 119.56C-180.603 133.673 -177.043 142.188 -171.746 146.524C-179.218 143.363 -189.359 141.714 -194.869 149.673C-198.733 155.254 -199.326 159.745 -198.582 163.023C-212.861 142.301 -241.783 113.215 -268.146 128.594C-297.056 145.457 -292.907 179.118 -287.218 193.84C-305.287 192.837 -338.01 199.462 -324.359 233.992C-315.216 257.117 -304.663 270.128 -296.679 276.702C-308.516 271.563 -324.415 270.577 -332.389 290.205C-338.747 264.441 -360.696 217.128 -397.636 233.992C-434.576 250.856 -437.119 278.494 -433.773 290.205C-443.811 281.84 -464.89 269.727 -468.906 288.197C-472.921 306.667 -462.548 317.307 -456.86 320.319C-476.267 311.284 -515.883 300.243 -519.095 328.349C-519.095 345.213 -503.704 373.52 -496.008 385.565C-533.751 343.004 -561.255 376.531 -570.289 398.615C-595.183 394.599 -586.016 417.687 -578.32 429.732C-681.108 412.065 -680.038 634.915 -666.654 677.074H740.667C736.987 689.789 798.969 568.297 740.667 512.043C705.416 478.03 700.181 479.253 674.417 492.971C717.781 443.986 656.349 406.98 620.212 394.599C629.849 353.645 578.053 351.436 550.95 355.451C570.223 327.345 542.92 320.319 526.859 320.319C540.511 249.651 457.597 282.844 414.434 308.273C431.298 292.212 415.438 268.121 405.401 258.083C439.128 282.174 440.868 252.06 437.522 233.992C505.78 200.265 455.925 156.365 422.465 138.632C429.826 129.932 443.143 108.317 437.522 91.4532C432.505 76.4027 414.855 93.8135 403.982 107.722C405.374 101.363 406.29 88.2398 405.401 63.347C403.794 18.3769 340.488 51.3014 309.036 73.3849C321.416 63.347 347.381 38.4529 352.199 19.18C357.018 -0.0928802 340.154 -5.58031 331.12 -5.9149C336.808 -9.59548 347.783 -23.9832 346.177 -52.0895C344.571 -80.1957 310.709 -58.4468 293.979 -44.0591C296.656 -68.8194 289.964 -121.552 241.782 -134.401C201.678 -145.095 182.437 -99.9708 175.375 -64.0872C173.678 -71.3118 169.104 -79.6633 159.471 -88.2261C137.789 -107.499 125.676 -66.8118 122.33 -44.0591Z" fill="#FCFBF7"/>
<path d="M122.33 -44.0591C93.8892 -37.3671 43.8332 -12.9415 71.1365 31.2255C65.4483 28.5487 55.0758 29.2179 59.091 53.309C51.3952 53.9782 36.6059 58.9303 39.015 73.3849C36.6728 38.5867 17.3332 -21.9756 -41.2885 14.161C-40.6193 -7.2533 -47.1106 -41.2485 -78.429 -5.9149C-93.4859 -18.9642 -129.422 -34.4227 -152.71 8.13823C-175.998 50.6991 -127.615 81.4153 -100.512 91.4533C-111.889 90.7841 -133.437 94.0631 -128.619 112.533C-137.987 106.845 -159.736 100.287 -171.782 119.56C-183.827 138.832 -172.786 147.666 -165.759 149.673C-172.451 145.324 -187.642 139.234 -194.869 149.673C-202.097 160.113 -197.881 166.738 -194.869 168.745C-207.249 148.335 -239.237 111.73 -268.146 128.594C-297.056 145.457 -292.907 179.118 -287.218 193.84C-305.287 192.837 -338.01 199.462 -324.359 233.992C-310.707 268.523 -293.91 280.501 -287.218 282.174C-297.926 274.144 -321.95 264.508 -332.389 290.205C-338.747 264.441 -360.696 217.128 -397.636 233.992C-434.576 250.856 -437.119 278.494 -433.773 290.205C-443.811 281.84 -464.89 269.727 -468.905 288.197C-472.921 306.667 -462.548 317.307 -456.86 320.319C-476.267 311.284 -515.883 300.243 -519.095 328.349C-519.095 345.213 -503.704 373.52 -496.008 385.565C-533.751 343.004 -561.255 376.531 -570.289 398.615C-595.183 394.599 -586.015 417.687 -578.32 429.732C-681.108 412.065 -680.038 634.915 -666.654 677.074H740.667C736.987 689.789 798.969 568.297 740.667 512.043C705.416 478.03 700.181 479.253 674.417 492.971C717.781 443.986 656.349 406.98 620.212 394.599C629.849 353.645 578.053 351.436 550.95 355.451C570.223 327.345 542.92 320.319 526.859 320.319C540.511 249.651 457.597 282.844 414.434 308.273C431.298 292.212 415.438 268.121 405.401 258.083C439.128 282.174 440.868 252.06 437.522 233.992C505.78 200.265 455.925 156.365 422.465 138.632C429.826 129.932 443.143 108.317 437.522 91.4533C431.9 74.5895 410.419 98.4798 400.382 112.533C402.724 114.875 407.007 108.317 405.401 63.347C403.794 18.3769 340.488 51.3014 309.036 73.3849C321.416 63.347 347.381 38.4529 352.199 19.18C357.018 -0.0928879 340.154 -5.5803 331.12 -5.9149C336.808 -9.59548 347.783 -23.9832 346.177 -52.0895C344.571 -80.1957 310.709 -58.4468 293.979 -44.0591C296.656 -68.8194 289.964 -121.552 241.782 -134.401C193.6 -147.249 175.531 -79.5265 172.52 -44.0591C177.204 -50.7511 181.153 -68.9532 159.471 -88.2261C137.789 -107.499 125.676 -66.8118 122.33 -44.0591Z" stroke="black" stroke-width="5.2267"/>
</svg>
