<svg width="1448" height="782" viewBox="0 0 1448 782" fill="none" xmlns="http://www.w3.org/2000/svg">
<g clip-path="url(#clip0_3586_532)">
<path d="M752.33 107.941C723.889 114.633 673.833 139.059 701.136 183.226C695.448 180.549 685.076 181.218 689.091 205.309C682.001 205.926 668.89 210.177 668.754 222.146C665.462 186.997 645.553 131.122 588.711 166.161C589.381 144.747 582.889 110.752 551.571 146.085C536.514 133.036 500.578 117.577 477.29 160.138C454.002 202.699 502.385 233.415 529.487 243.453C518.111 242.784 496.563 246.063 501.381 264.533C492.012 258.845 470.264 252.287 458.218 271.56C449.397 285.673 452.957 294.188 458.254 298.524C450.782 295.363 440.641 293.714 435.131 301.673C431.267 307.254 430.674 311.745 431.418 315.023C417.139 294.301 388.217 265.215 361.854 280.594C332.944 297.457 337.093 331.118 342.782 345.84C324.713 344.837 291.99 351.462 305.641 385.992C314.784 409.117 325.337 422.128 333.321 428.702C321.484 423.563 305.585 422.577 297.611 442.205C291.253 416.441 269.304 369.128 232.364 385.992C195.424 402.856 192.881 430.494 196.227 442.205C186.189 433.84 165.11 421.727 161.094 440.197C157.079 458.667 167.452 469.307 173.14 472.319C153.733 463.284 114.117 452.243 110.905 480.349C110.905 497.213 126.296 525.52 133.992 537.565C96.2489 495.004 68.7449 528.531 59.7107 550.615C34.8165 546.599 43.9845 569.687 51.6803 581.732C-51.1083 564.065 -50.0376 786.915 -36.6537 829.074H1370.67C1366.99 841.789 1428.97 720.297 1370.67 664.043C1335.42 630.03 1330.18 631.253 1304.42 644.971C1347.78 595.986 1286.35 558.979 1250.21 546.599C1259.85 505.645 1208.05 503.436 1180.95 507.451C1200.22 479.345 1172.92 472.319 1156.86 472.319C1170.51 401.651 1087.6 434.844 1044.43 460.273C1061.3 444.212 1045.44 420.121 1035.4 410.083C1069.13 434.174 1070.87 404.06 1067.52 385.992C1135.78 352.265 1085.92 308.365 1052.46 290.632C1059.83 281.932 1073.14 260.317 1067.52 243.453C1062.5 228.403 1044.86 245.814 1033.98 259.722C1035.37 253.363 1036.29 240.24 1035.4 215.347C1033.79 170.377 970.488 203.301 939.036 225.385C951.416 215.347 977.381 190.453 982.199 171.18C987.018 151.907 970.154 146.42 961.12 146.085C966.808 142.405 977.783 128.017 976.177 99.9105C974.571 71.8043 940.709 93.5532 923.979 107.941C926.656 83.1806 919.964 30.4479 871.782 17.5993C831.678 6.90495 812.437 52.0293 805.375 87.9128C803.678 80.6883 799.104 72.3368 789.471 63.7739C767.789 44.501 755.676 85.1882 752.33 107.941Z" fill="#FCFBF7"/>
<path d="M752.33 107.941C723.889 114.633 673.833 139.059 701.136 183.226C695.448 180.549 685.076 181.218 689.091 205.309C681.395 205.978 666.606 210.93 669.015 225.385C666.673 190.587 647.333 130.024 588.711 166.161C589.381 144.747 582.889 110.752 551.571 146.085C536.514 133.036 500.578 117.577 477.29 160.138C454.002 202.699 502.385 233.415 529.487 243.453C518.111 242.784 496.563 246.063 501.381 264.533C492.012 258.845 470.264 252.287 458.218 271.56C446.173 290.832 457.214 299.666 464.241 301.673C457.549 297.324 442.358 291.234 435.131 301.673C427.903 312.113 432.119 318.738 435.131 320.745C422.751 300.335 390.763 263.73 361.854 280.594C332.944 297.457 337.093 331.118 342.782 345.84C324.713 344.837 291.989 351.462 305.641 385.992C319.293 420.523 336.09 432.501 342.782 434.174C332.074 426.144 308.05 416.508 297.611 442.205C291.253 416.441 269.304 369.128 232.364 385.992C195.424 402.856 192.881 430.494 196.227 442.205C186.189 433.84 165.11 421.727 161.094 440.197C157.079 458.667 167.452 469.307 173.14 472.319C153.733 463.284 114.117 452.243 110.905 480.349C110.905 497.213 126.296 525.52 133.992 537.565C96.2489 495.004 68.7449 528.531 59.7107 550.615C34.8166 546.599 43.9845 569.687 51.6803 581.732C-51.1083 564.065 -50.0376 786.915 -36.6537 829.074H1370.67C1366.99 841.789 1428.97 720.297 1370.67 664.043C1335.42 630.03 1330.18 631.253 1304.42 644.971C1347.78 595.986 1286.35 558.98 1250.21 546.599C1259.85 505.645 1208.05 503.436 1180.95 507.451C1200.22 479.345 1172.92 472.319 1156.86 472.319C1170.51 401.651 1087.6 434.844 1044.43 460.273C1061.3 444.212 1045.44 420.121 1035.4 410.083C1069.13 434.174 1070.87 404.061 1067.52 385.992C1135.78 352.265 1085.92 308.365 1052.46 290.632C1059.83 281.932 1073.14 260.317 1067.52 243.453C1061.9 226.589 1040.42 250.48 1030.38 264.533C1032.72 266.875 1037.01 260.317 1035.4 215.347C1033.79 170.377 970.488 203.301 939.036 225.385C951.416 215.347 977.381 190.453 982.199 171.18C987.018 151.907 970.154 146.42 961.12 146.085C966.808 142.405 977.783 128.017 976.177 99.9105C974.571 71.8043 940.709 93.5532 923.979 107.941C926.656 83.1806 919.964 30.4479 871.782 17.5993C823.6 4.75073 805.531 72.4735 802.52 107.941C807.204 101.249 811.152 83.0468 789.471 63.7739C767.789 44.501 755.676 85.1882 752.33 107.941Z" stroke="black" stroke-width="5.2267"/>
</g>
<defs>
<clipPath id="clip0_3586_532">
<rect width="1448" height="782" fill="white"/>
</clipPath>
</defs>
</svg>
