<svg width="740" height="466" viewBox="0 0 740 466" fill="none" xmlns="http://www.w3.org/2000/svg">
<path d="M681.166 71.3L663.691 78.4208" stroke="black" stroke-width="6.56465" stroke-miterlimit="10" stroke-linecap="round"/>
<path d="M678.365 86.1263L659.502 86.6609" stroke="black" stroke-width="6.56465" stroke-miterlimit="10" stroke-linecap="round"/>
<path d="M156.627 281.01L134.217 283.114" stroke="black" stroke-width="8.20581" stroke-miterlimit="10" stroke-linecap="round"/>
<path d="M160.015 295.975L139.158 304.28" stroke="black" stroke-width="8.20581" stroke-miterlimit="10" stroke-linecap="round"/>
<path d="M606.566 257.285L575.789 266.192" stroke="black" stroke-width="8.20581" stroke-miterlimit="10" stroke-linecap="round"/>
<path d="M610.364 276.197L578.398 273.8" stroke="black" stroke-width="8.20581" stroke-miterlimit="10" stroke-linecap="round"/>
<path d="M513.099 157.578L490.562 134.797" stroke="black" stroke-width="8.20581" stroke-miterlimit="10" stroke-linecap="round"/>
<path d="M500.246 150.186L484.605 146.864L468.964 143.543" stroke="black" stroke-width="8.20581" stroke-miterlimit="10" stroke-linecap="round"/>
<path d="M474.325 376.006C483.258 377.643 493.351 380.21 504.196 383.997C520.957 389.88 534.582 397.268 545.133 404.014C552.149 407.447 559.92 410.823 568.445 413.794C586.075 420.086 602.433 423.59 616.356 425.582C618.56 426.166 621.867 426.576 625.524 425.595C632.49 423.632 636.154 417.428 639.702 411.457C640.051 410.877 640.4 410.181 640.807 409.544C644.821 402.18 641.41 393.066 633.93 389.4C605.286 375.434 591.267 358.588 583.743 345.116C575.698 330.656 575.075 319.805 561.503 274.353C555.901 255.604 550.874 240.336 547.522 230.352" fill="#D6CCBF"/>
<path d="M474.325 376.006C483.258 377.643 493.351 380.21 504.196 383.997C520.957 389.88 534.582 397.268 545.133 404.014C552.149 407.447 559.92 410.823 568.445 413.794C586.075 420.086 602.433 423.59 616.356 425.582C618.56 426.166 621.867 426.576 625.524 425.595C632.49 423.632 636.154 417.428 639.702 411.457C640.051 410.877 640.4 410.181 640.807 409.544C644.821 402.18 641.41 393.066 633.93 389.4C605.286 375.434 591.267 358.588 583.743 345.116C575.698 330.656 575.075 319.805 561.503 274.353C555.901 255.604 550.874 240.336 547.522 230.352" stroke="black" stroke-width="8.20581" stroke-miterlimit="10" stroke-linecap="round"/>
<path d="M268.242 283.125C254.661 294.139 243.414 302.126 235.521 307.34C231.542 309.972 230.971 310.306 219.751 317.653C195.762 333.429 197.038 333.072 194.75 333.997C184.748 338.345 165.382 343.556 161.556 345.037C159.087 345.997 156.967 347.412 156.967 347.412C156.772 347.562 156.511 347.761 156.186 348.011C146.503 354.801 140.492 367.875 140.492 367.875C137.277 374.881 128.479 388.228 111.448 410.665C105.209 418.85 103.901 429.564 108.138 438.205C109.327 440.704 110.632 443.219 111.967 445.504C113.253 447.724 115.24 451.266 119.393 453.047C120.333 453.465 121.238 453.702 121.518 453.798C131.914 456.175 169.195 406.46 198.855 399.984C199.936 399.776 201.623 399.415 203.18 399.154C216.649 396.906 223.145 398.238 234.923 397.696C234.923 397.696 243.424 397.597 251.713 396.007C257.48 394.9 294.167 366.732 324.269 345.037" fill="#D6CCBF"/>
<path d="M268.242 283.125C254.661 294.139 243.414 302.126 235.521 307.34C231.542 309.972 230.971 310.306 219.751 317.653C195.762 333.429 197.038 333.072 194.75 333.997C184.748 338.345 165.382 343.556 161.556 345.037C159.087 345.997 156.967 347.412 156.967 347.412C156.772 347.562 156.511 347.761 156.186 348.011C146.503 354.801 140.492 367.875 140.492 367.875C137.277 374.881 128.479 388.228 111.448 410.665C105.209 418.85 103.901 429.564 108.138 438.205C109.327 440.704 110.632 443.219 111.967 445.504C113.253 447.724 115.24 451.266 119.393 453.047C120.333 453.465 121.238 453.702 121.518 453.798C131.914 456.175 169.195 406.46 198.855 399.984C199.936 399.776 201.623 399.415 203.18 399.154C216.649 396.906 223.145 398.238 234.923 397.696C234.923 397.696 243.424 397.597 251.713 396.007C257.48 394.9 294.167 366.732 324.269 345.037" stroke="black" stroke-width="8.20581" stroke-miterlimit="10" stroke-linecap="round"/>
<path d="M617.464 40.343C608.452 28.3231 590.016 11.747 580.031 16.7003C579.398 16.9901 578.18 17.6752 577.089 19.1956C567.307 31.8414 597.711 56.0212 591.278 86.0226C589.893 92.3362 588.423 92.052 587.584 98.3066C585.032 117.406 596.502 140.234 606.981 140.543C618.939 140.876 631.666 112.078 632.475 87.7769C632.609 83.8868 632.981 60.999 617.54 40.3716L617.464 40.343Z" fill="#EFE4E4" stroke="black" stroke-width="8.20581" stroke-miterlimit="10"/>
<path fill-rule="evenodd" clip-rule="evenodd" d="M490.194 46.5201C493.18 35.7816 517.831 33.141 532.795 34.4676L532.868 34.4295C558.532 36.7244 575.312 52.294 578.117 54.9928C579.786 56.5953 581.414 58.3054 582.985 60.0955C598.204 58.3957 610.169 61.8765 612.248 62.5201C627.839 64.4895 659.021 71.3003 672.643 95.4254C678.697 106.058 678.906 115.887 679.103 125.139C679.334 135.953 679.547 145.978 689.055 155.574C691.431 157.987 693.471 159.46 696.62 161.732C700.43 164.482 705.862 168.404 715.477 176.581L715.559 176.417C726.883 186.018 732.546 190.941 732.874 194.634C734.351 210.225 697.835 235.499 662.632 232.052C651.294 230.936 645.44 228.245 640.412 225.935C635.834 223.831 631.94 222.041 625.214 222.041C610.935 221.959 599.201 241.981 595.098 254.864C593.867 258.721 590.995 267.748 592.636 278.907C593.465 284.418 595.099 288.506 596.423 291.816C598.115 296.048 599.299 299.009 597.642 302.048C596.002 305.099 592.972 305.724 588.987 306.546C585.792 307.205 581.983 307.99 577.784 310.254C569.603 314.734 565.994 321.578 562.811 327.614C561.972 329.206 561.162 330.742 560.306 332.163C547.751 352.76 519.194 358.094 495.808 362.443C474.965 366.381 457.733 365.068 425.976 362.361C421.927 361.997 415.972 361.404 409.796 360.788H409.795C406.21 360.431 402.549 360.066 399.143 359.735C384.373 358.258 370.669 356.699 356.965 354.811C319.433 349.697 294.049 343.712 273.389 338.841C253.938 334.255 238.675 330.656 221.405 329.701C221.003 329.675 220.543 329.648 220.028 329.619C214.234 329.289 201.525 328.564 187.433 322.234C171.7 315.187 163.577 305.439 161.92 303.451L161.913 303.443C161.913 303.443 153.625 293.268 149.605 278.415C144.811 260.818 145.059 223.925 163.057 193.113C156.271 192.772 149.183 191.976 141.855 190.597C73.5249 177.659 51.5457 120.127 47.3386 109.115C47.1667 108.665 47.0245 108.293 46.91 108.004C44.7586 102.604 48.8104 96.7431 54.6087 96.7213C54.9529 96.7247 55.2916 96.7253 55.6251 96.7259C60.1615 96.7343 63.7181 96.7409 66.8111 103.688C75.6779 123.491 106.014 171.276 154.886 160.869C165.498 158.614 174.125 156.454 181.591 154.585C197.91 150.501 208.681 147.805 222.502 148.533C264.505 137.419 310.291 149.944 321.845 153.112C337.755 157.499 352.013 163.64 365.767 169.563C394.716 182.03 421.426 193.533 456.584 185.689C463.067 184.294 468.154 182.571 471.437 181.34C469.704 180.871 468.033 180.441 466.449 180.034C458.062 177.877 452.136 176.353 452.481 172.97C452.736 170.472 456.254 169.336 462.562 167.299C466.406 166.057 471.288 164.48 477.099 162.057C493.322 155.312 501.093 148.517 506.397 143.878C510.645 140.163 513.312 137.831 517.471 138.014C517.577 137.708 517.682 137.403 517.787 137.1L517.787 137.099C518.5 135.042 519.197 133.03 519.769 130.957C520.507 128.495 521.164 126.115 521.656 123.9C521.918 120.627 523.746 101.583 537.598 84.6396C532.501 79.3838 523.845 74.9493 515.297 70.5701C503.318 64.4331 491.551 58.4046 490.085 50.3761C489.682 48.5487 489.986 47.1848 490.194 46.5201Z" fill="#F9F7F2"/>
<path d="M532.795 34.4676L532.433 38.5544L533.634 38.6609L534.701 38.1011L532.795 34.4676ZM490.194 46.5201L494.11 47.7422L494.129 47.6811L494.147 47.6194L490.194 46.5201ZM532.868 34.4295L533.234 30.3429L532.031 30.2354L530.963 30.7959L532.868 34.4295ZM578.117 54.9928L575.272 57.9493L575.275 57.9524L578.117 54.9928ZM582.985 60.0955L579.901 62.8021L581.313 64.4106L583.44 64.1731L582.985 60.0955ZM612.248 62.5201L611.035 66.4395L611.378 66.5457L611.734 66.5906L612.248 62.5201ZM672.643 95.4254L669.07 97.4427L669.074 97.4491L669.078 97.4556L672.643 95.4254ZM679.103 125.139L675.001 125.227L675.001 125.227L679.103 125.139ZM689.055 155.574L691.978 152.695L691.969 152.686L689.055 155.574ZM696.62 161.732L694.218 165.059L694.218 165.059L696.62 161.732ZM715.477 176.581L712.819 179.706L716.807 183.098L719.147 178.415L715.477 176.581ZM715.559 176.417L718.213 173.287L714.226 169.907L711.889 174.582L715.559 176.417ZM732.874 194.634L728.787 194.997L728.788 195.009L728.789 195.021L732.874 194.634ZM662.632 232.052L662.23 236.135L662.232 236.136L662.632 232.052ZM640.412 225.935L642.126 222.207L642.126 222.207L640.412 225.935ZM625.214 222.041L625.19 226.144L625.202 226.144H625.214V222.041ZM595.098 254.864L599.007 256.112L599.008 256.109L595.098 254.864ZM592.636 278.907L588.577 279.504L588.579 279.517L592.636 278.907ZM596.423 291.816L592.614 293.34L592.614 293.34L596.423 291.816ZM597.642 302.048L594.04 300.083L594.034 300.095L594.028 300.106L597.642 302.048ZM588.987 306.546L588.158 302.527L588.158 302.527L588.987 306.546ZM577.784 310.254L575.837 306.642L575.825 306.649L575.813 306.655L577.784 310.254ZM562.811 327.614L559.182 325.7L559.182 325.7L562.811 327.614ZM560.306 332.163L563.809 334.299L563.814 334.289L563.82 334.28L560.306 332.163ZM495.808 362.443L495.058 358.409L495.046 358.411L495.808 362.443ZM425.976 362.361L425.61 366.447L425.619 366.448L425.628 366.449L425.976 362.361ZM409.796 360.788L410.202 356.706L410 356.685H409.796V360.788ZM409.795 360.788L409.388 364.871L409.591 364.891H409.795V360.788ZM399.143 359.735L398.735 363.817L398.746 363.818L399.143 359.735ZM356.965 354.811L357.525 350.747L357.519 350.746L356.965 354.811ZM273.389 338.841L274.33 334.848L274.33 334.848L273.389 338.841ZM221.405 329.701L221.133 333.795L221.156 333.797L221.179 333.798L221.405 329.701ZM220.028 329.619L219.794 333.715L219.794 333.715L220.028 329.619ZM187.433 322.234L189.115 318.491L189.111 318.49L187.433 322.234ZM161.92 303.451L165.072 300.824L165.071 300.823L161.92 303.451ZM161.913 303.443L158.732 306.034L158.747 306.052L158.762 306.071L161.913 303.443ZM149.605 278.415L153.565 277.343L153.563 277.337L149.605 278.415ZM163.057 193.113L166.6 195.183L170.004 189.355L163.263 189.016L163.057 193.113ZM141.855 190.597L141.092 194.629L141.096 194.629L141.855 190.597ZM47.3386 109.115L43.5059 110.579L43.5059 110.579L47.3386 109.115ZM46.91 108.004L50.7233 106.49L50.7215 106.486L46.91 108.004ZM54.6087 96.7213L54.6492 92.6186L54.6212 92.6183L54.5932 92.6184L54.6087 96.7213ZM55.6251 96.7259L55.6327 92.623L55.6327 92.623L55.6251 96.7259ZM66.8111 103.688L63.0629 105.357L63.0665 105.365L66.8111 103.688ZM154.886 160.869L154.033 156.856L154.031 156.856L154.886 160.869ZM181.591 154.585L180.595 150.605L180.595 150.605L181.591 154.585ZM222.502 148.533L222.286 152.63L222.929 152.664L223.552 152.499L222.502 148.533ZM321.845 153.112L322.935 149.157L322.93 149.155L321.845 153.112ZM365.767 169.563L364.144 173.331L364.144 173.331L365.767 169.563ZM456.584 185.689L455.721 181.678L455.706 181.682L455.691 181.685L456.584 185.689ZM471.437 181.34L472.877 185.182L484.806 180.709L472.508 177.38L471.437 181.34ZM466.449 180.034L465.427 184.008L465.427 184.008L466.449 180.034ZM452.481 172.97L448.399 172.554L448.399 172.554L452.481 172.97ZM462.562 167.299L463.823 171.203L463.823 171.203L462.562 167.299ZM477.099 162.057L475.524 158.268L475.519 158.27L477.099 162.057ZM506.397 143.878L509.098 146.966L509.098 146.966L506.397 143.878ZM517.471 138.014L517.291 142.113L520.351 142.247L521.35 139.351L517.471 138.014ZM517.787 137.1L521.664 138.443L521.672 138.42L521.68 138.397L517.787 137.1ZM517.787 137.099L513.911 135.756L513.903 135.779L513.895 135.802L517.787 137.099ZM519.769 130.957L515.839 129.778L515.826 129.821L515.814 129.866L519.769 130.957ZM521.656 123.9L525.661 124.79L525.723 124.511L525.746 124.227L521.656 123.9ZM537.598 84.6396L540.775 87.2365L543.088 84.4068L540.543 81.7831L537.598 84.6396ZM515.297 70.5701L517.168 66.9185L517.168 66.9185L515.297 70.5701ZM490.085 50.3761L494.121 49.639L494.107 49.5663L494.092 49.4941L490.085 50.3761ZM533.158 30.3807C525.331 29.6868 515.003 30.0219 506.127 31.961C501.696 32.9292 497.408 34.3433 493.932 36.3799C490.48 38.4024 487.384 41.3112 486.241 45.4208L494.147 47.6194C494.497 46.3597 495.602 44.9115 498.08 43.4601C500.533 42.0228 503.903 40.8462 507.879 39.9778C515.816 38.2436 525.296 37.9217 532.433 38.5544L533.158 30.3807ZM530.963 30.7959L530.89 30.834L534.701 38.1011L534.774 38.063L530.963 30.7959ZM580.962 52.0362C577.959 49.1468 560.322 32.7652 533.234 30.3429L532.503 38.5161C556.742 40.6836 572.666 55.4411 575.272 57.9493L580.962 52.0362ZM586.068 57.389C584.426 55.5176 582.718 53.7223 580.959 52.0332L575.275 57.9524C576.854 59.4683 578.401 61.0933 579.901 62.8021L586.068 57.389ZM583.44 64.1731C597.864 62.5622 609.211 65.8749 611.035 66.4395L613.461 58.6006C611.127 57.8781 598.545 54.2293 582.529 56.018L583.44 64.1731ZM611.734 66.5906C619.323 67.5492 630.595 69.6767 641.552 74.4285C652.517 79.1842 662.851 86.4274 669.07 97.4427L676.216 93.4081C668.814 80.2984 656.745 72.0736 644.817 66.9002C632.879 61.723 620.765 59.4604 612.763 58.4495L611.734 66.5906ZM669.078 97.4556C674.566 107.095 674.804 115.964 675.001 125.227L683.205 125.052C683.009 115.811 682.828 105.02 676.209 93.3953L669.078 97.4556ZM675.001 125.227C675.231 136.006 675.377 147.599 686.14 158.462L691.969 152.686C683.717 144.357 683.436 135.9 683.205 125.052L675.001 125.227ZM686.131 158.453C688.781 161.144 691.09 162.801 694.218 165.059L699.021 158.406C695.853 156.119 694.08 154.83 691.978 152.695L686.131 158.453ZM694.218 165.059C697.974 167.77 703.314 171.623 712.819 179.706L718.135 173.455C708.411 165.185 702.885 161.194 699.021 158.406L694.218 165.059ZM719.147 178.415L719.229 178.251L711.889 174.582L711.807 174.746L719.147 178.415ZM712.906 179.546C718.616 184.387 722.708 187.892 725.429 190.632C726.782 191.995 727.666 193.042 728.209 193.855C728.76 194.683 728.789 195.019 728.787 194.997L736.961 194.27C736.795 192.402 735.993 190.738 735.036 189.304C734.071 187.856 732.77 186.379 731.252 184.85C728.228 181.805 723.827 178.047 718.213 173.287L712.906 179.546ZM728.789 195.021C729.005 197.303 727.819 200.728 724.323 204.912C720.93 208.975 715.802 213.202 709.43 216.944C696.662 224.442 679.592 229.59 663.032 227.969L662.232 236.136C680.875 237.961 699.665 232.195 713.586 224.02C720.559 219.925 726.483 215.126 730.621 210.173C734.657 205.341 737.481 199.76 736.958 194.247L728.789 195.021ZM663.034 227.969C652.342 226.916 646.962 224.429 642.126 222.207L638.699 229.663C643.918 232.061 650.245 234.955 662.23 236.135L663.034 227.969ZM642.126 222.207C637.449 220.057 632.875 217.938 625.214 217.938V226.144C631.005 226.144 634.219 227.604 638.699 229.663L642.126 222.207ZM625.237 217.938C616.153 217.886 608.584 224.149 603.124 231.044C597.541 238.094 593.367 246.778 591.189 253.619L599.008 256.109C600.932 250.067 604.677 242.299 609.557 236.138C614.559 229.821 619.995 226.114 625.19 226.144L625.237 217.938ZM591.189 253.617C589.925 257.579 586.792 267.365 588.577 279.504L596.696 278.31C595.199 268.13 597.809 259.864 599.007 256.112L591.189 253.617ZM588.579 279.517C589.484 285.535 591.279 290.003 592.614 293.34L600.233 290.293C598.92 287.009 597.446 283.301 596.694 278.298L588.579 279.517ZM592.614 293.34C593.508 295.577 594.041 296.957 594.252 298.115C594.424 299.058 594.324 299.562 594.04 300.083L601.244 304.013C602.617 301.495 602.754 298.999 602.325 296.644C601.935 294.504 601.03 292.287 600.233 290.293L592.614 293.34ZM594.028 300.106C593.723 300.673 593.338 301.029 592.547 301.375C591.562 301.807 590.274 302.091 588.158 302.527L589.815 310.564C593.332 309.839 598.554 309.018 601.256 303.99L594.028 300.106ZM588.158 302.527C584.949 303.189 580.613 304.067 575.837 306.642L579.731 313.865C583.352 311.913 586.634 311.22 589.815 310.564L588.158 302.527ZM575.813 306.655C566.437 311.789 562.347 319.697 559.182 325.7L566.44 329.527C569.641 323.458 572.768 317.678 579.755 313.852L575.813 306.655ZM559.182 325.7C558.331 327.314 557.576 328.743 556.791 330.046L563.82 334.28C564.748 332.741 565.612 331.098 566.441 329.527L559.182 325.7ZM556.802 330.028C551.186 339.241 541.853 345.277 530.652 349.564C519.429 353.859 506.819 356.222 495.058 358.409L496.558 366.476C508.184 364.314 521.544 361.836 533.585 357.228C545.648 352.611 556.87 345.682 563.809 334.299L556.802 330.028ZM495.046 358.411C474.843 362.229 458.168 360.988 426.325 358.272L425.628 366.449C457.298 369.149 475.087 370.534 496.57 366.474L495.046 358.411ZM426.343 358.274C422.318 357.913 416.388 357.322 410.202 356.706L409.389 364.871C415.556 365.486 421.535 366.081 425.61 366.447L426.343 358.274ZM409.796 356.685H409.795V364.891H409.796V356.685ZM410.202 356.706C406.617 356.348 402.952 355.983 399.541 355.651L398.746 363.818C402.146 364.149 405.802 364.514 409.388 364.871L410.202 356.706ZM399.552 355.652C384.815 354.179 371.165 352.625 357.525 350.747L356.406 358.876C370.174 360.772 383.93 362.337 398.735 363.817L399.552 355.652ZM357.519 350.746C320.188 345.659 294.957 339.711 274.33 334.848L272.447 342.834C293.14 347.713 318.679 353.735 356.411 358.877L357.519 350.746ZM274.33 334.848C254.937 330.275 239.323 326.583 221.632 325.605L221.179 333.798C238.027 334.73 252.939 338.235 272.447 342.834L274.33 334.848ZM221.678 325.608C221.253 325.579 220.771 325.552 220.261 325.523L219.794 333.715C220.315 333.745 220.754 333.77 221.133 333.795L221.678 325.608ZM220.261 325.523C214.562 325.198 202.487 324.498 189.115 318.491L185.752 325.977C200.564 332.63 213.905 333.38 219.794 333.715L220.261 325.523ZM189.111 318.49C174.195 311.809 166.549 302.597 165.072 300.824L158.768 306.078C160.604 308.281 169.205 318.565 185.756 325.979L189.111 318.49ZM165.071 300.823L165.064 300.815L158.762 306.071L158.769 306.079L165.071 300.823ZM161.913 303.443C165.094 300.852 165.095 300.852 165.096 300.853C165.096 300.853 165.096 300.854 165.096 300.854C165.097 300.855 165.097 300.855 165.098 300.856C165.098 300.857 165.099 300.857 165.098 300.856C165.097 300.855 165.095 300.852 165.09 300.846C165.081 300.835 165.064 300.814 165.04 300.783C164.992 300.722 164.914 300.623 164.811 300.487C164.604 300.217 164.294 299.801 163.904 299.25C163.123 298.148 162.028 296.511 160.808 294.427C158.361 290.245 155.455 284.327 153.565 277.343L145.644 279.487C147.774 287.356 151.023 293.952 153.725 298.571C155.08 300.886 156.308 302.722 157.207 303.992C157.657 304.627 158.025 305.122 158.288 305.466C158.419 305.638 158.524 305.772 158.599 305.867C158.636 305.914 158.666 305.952 158.689 305.98C158.7 305.994 158.709 306.006 158.716 306.015C158.72 306.019 158.723 306.023 158.726 306.026C158.727 306.028 158.728 306.029 158.729 306.03C158.73 306.031 158.731 306.032 158.731 306.032C158.731 306.033 158.732 306.034 161.913 303.443ZM153.563 277.337C149.028 260.686 149.215 224.944 166.6 195.183L159.514 191.044C140.904 222.905 140.594 260.949 145.646 279.493L153.563 277.337ZM163.263 189.016C156.653 188.683 149.751 187.908 142.614 186.565L141.096 194.629C148.616 196.044 155.888 196.86 162.851 197.211L163.263 189.016ZM142.618 186.566C76.5986 174.065 55.3259 118.526 51.1713 107.651L43.5059 110.579C47.7655 121.729 70.4513 181.253 141.092 194.629L142.618 186.566ZM51.1713 107.651C51.0032 107.211 50.85 106.809 50.7233 106.49L43.0966 109.518C43.199 109.776 43.3302 110.12 43.5059 110.579L51.1713 107.651ZM50.7215 106.486C49.6659 103.836 51.6523 100.835 54.6241 100.824L54.5932 92.6184C45.9685 92.6509 39.8514 101.373 43.0984 109.523L50.7215 106.486ZM54.5682 100.824C54.9315 100.828 55.2865 100.828 55.6175 100.829L55.6327 92.623C55.2968 92.6224 54.9743 92.6218 54.6492 92.6186L54.5682 100.824ZM55.6175 100.829C58.0816 100.833 59.138 100.904 60.0059 101.314C60.6498 101.619 61.7489 102.406 63.0629 105.357L70.5594 102.02C68.7803 98.0236 66.5546 95.3336 63.5128 93.8957C60.695 92.5636 57.705 92.6269 55.6327 92.623L55.6175 100.829ZM63.0665 105.365C67.6551 115.613 77.7577 133.055 93.1251 146.678C108.57 160.369 129.652 170.437 155.74 164.882L154.031 156.856C131.248 161.708 112.726 153.087 98.5684 140.537C84.333 127.918 74.834 111.566 70.5558 102.012L63.0665 105.365ZM155.739 164.882C166.429 162.61 175.12 160.435 182.588 158.565L180.595 150.605C173.13 152.474 164.566 154.617 154.033 156.856L155.739 164.882ZM182.588 158.565C198.984 154.461 209.173 151.939 222.286 152.63L222.718 144.436C208.189 143.67 196.836 146.54 180.595 150.605L182.588 158.565ZM223.552 152.499C264.367 141.699 309.16 153.889 320.76 157.069L322.93 149.155C311.422 146 264.642 133.138 221.453 144.567L223.552 152.499ZM320.754 157.068C336.351 161.368 350.361 167.396 364.144 173.331L367.39 165.795C353.666 159.884 339.158 153.63 322.935 149.157L320.754 157.068ZM364.144 173.331C393.01 185.763 420.872 197.861 457.477 189.694L455.691 181.685C421.981 189.206 396.422 178.298 367.39 165.795L364.144 173.331ZM457.447 189.7C464.177 188.252 469.463 186.462 472.877 185.182L469.996 177.499C466.845 178.68 461.956 180.337 455.721 181.678L457.447 189.7ZM472.508 177.38C470.747 176.903 469.052 176.467 467.471 176.061L465.427 184.008C467.014 184.416 468.66 184.839 470.365 185.301L472.508 177.38ZM467.471 176.061C463.145 174.948 459.939 174.111 457.817 173.195C456.757 172.737 456.358 172.417 456.271 172.328C456.257 172.314 456.363 172.418 456.456 172.655C456.557 172.911 456.584 173.176 456.563 173.387L448.399 172.554C448.167 174.832 449.085 176.717 450.406 178.067C451.595 179.283 453.138 180.113 454.564 180.729C457.416 181.959 461.367 182.963 465.427 184.008L467.471 176.061ZM456.563 173.387C456.464 174.356 455.664 174.344 457.088 173.631C458.441 172.953 460.535 172.265 463.823 171.203L461.301 163.394C458.28 164.37 455.461 165.268 453.415 166.293C451.44 167.282 448.753 169.087 448.399 172.554L456.563 173.387ZM463.823 171.203C467.675 169.959 472.697 168.338 478.678 165.843L475.519 158.27C469.878 160.623 465.138 162.155 461.301 163.394L463.823 171.203ZM478.674 165.845C495.474 158.861 503.628 151.75 509.098 146.966L503.697 140.789C498.557 145.284 491.17 151.763 475.524 158.268L478.674 165.845ZM509.098 146.966C513.656 142.98 515.065 142.015 517.291 142.113L517.651 133.915C511.559 133.647 507.633 137.347 503.697 140.789L509.098 146.966ZM521.35 139.351C521.454 139.048 521.559 138.747 521.664 138.443L513.91 135.757C513.805 136.06 513.699 136.367 513.592 136.676L521.35 139.351ZM521.68 138.397L521.68 138.397L513.895 135.802L513.895 135.802L521.68 138.397ZM521.664 138.442C522.37 136.405 523.111 134.27 523.724 132.048L515.814 129.866C515.282 131.791 514.63 133.678 513.911 135.756L521.664 138.442ZM523.699 132.136C524.451 129.627 525.139 127.141 525.661 124.79L517.651 123.009C517.189 125.089 516.563 127.363 515.839 129.778L523.699 132.136ZM525.746 124.227C525.986 121.222 527.722 103.202 540.775 87.2365L534.422 82.0427C519.771 99.9628 517.85 120.031 517.566 123.572L525.746 124.227ZM513.426 74.2216C522.204 78.7185 530.134 82.8366 534.653 87.4961L540.543 81.7831C534.867 75.9311 525.486 71.1801 517.168 66.9185L513.426 74.2216ZM486.048 51.1133C487.089 56.81 491.597 61.1412 496.375 64.5292C501.287 68.0123 507.513 71.1922 513.426 74.2216L517.168 66.9185C511.102 63.8109 505.455 60.9081 501.122 57.8355C496.655 54.668 494.547 51.9707 494.121 49.639L486.048 51.1133ZM486.277 45.298C485.922 46.4359 485.481 48.5474 486.078 51.2582L494.092 49.4941C493.884 48.5499 494.051 47.9337 494.11 47.7422L486.277 45.298Z" fill="black"/>
<path d="M616.684 142.935C627.27 151.715 656.4 141.048 659.108 127.18C659.272 126.277 659.518 124.39 658.452 120.369C654.595 106.419 640.563 90.3359 629.731 92.3053C614.715 95.0132 604.54 132.842 616.766 142.935H616.684Z" fill="#DAAD89"/>
<path d="M731.398 194.96L722.536 185.852C722.536 185.852 713.181 180.928 715.807 194.96C718.433 208.992 721.387 207.105 721.387 207.105L731.398 194.96Z" fill="black" stroke="black" stroke-width="8.20581" stroke-miterlimit="10"/>
<path d="M406.725 342.373C410.571 346.894 452.118 392.046 461.075 398.31C466.221 401.826 465.539 400.702 472.229 405.143C482.194 411.705 490.477 418.437 497.203 424.654C497.666 425.032 498.014 425.389 498.544 425.72C504.71 430.126 511.515 434.589 519.092 439.013C535.348 448.294 550.84 454.609 564.199 459.009C566.266 459.969 569.45 460.953 573.222 460.627C580.424 459.914 585.118 454.448 589.657 449.19C590.19 448.52 590.79 447.802 591.458 447.038C596.362 440.725 594.835 431.491 588.367 426.794C562.222 407.899 551.324 388.791 546.249 374.028C541.173 359.264 542.848 356.499 536.744 300.464C534.626 281.044 531.422 280.439 529.757 270.001" fill="#F9F7F2"/>
<path d="M406.725 342.373C410.571 346.894 452.118 392.046 461.075 398.31C466.221 401.826 465.539 400.702 472.229 405.143C482.194 411.705 490.477 418.437 497.203 424.654C497.666 425.032 498.014 425.389 498.544 425.72C504.71 430.126 511.515 434.589 519.092 439.013C535.348 448.294 550.84 454.609 564.199 459.009C566.266 459.969 569.45 460.953 573.222 460.627C580.424 459.914 585.118 454.448 589.657 449.19C590.19 448.52 590.79 447.802 591.458 447.038C596.362 440.725 594.835 431.491 588.367 426.794C562.222 407.899 551.324 388.791 546.249 374.028C541.173 359.264 542.848 356.499 536.744 300.464C534.626 281.044 531.422 280.439 529.757 270.001" stroke="black" stroke-width="8.20581" stroke-miterlimit="10" stroke-linecap="round"/>
<path d="M255.29 220.311L232.802 220.991" stroke="#D6CCBF" stroke-width="8.20581" stroke-miterlimit="10" stroke-linecap="round"/>
<path d="M259.258 234.028L238.693 243.178" stroke="#D6CCBF" stroke-width="8.20581" stroke-miterlimit="10" stroke-linecap="round"/>
<path d="M436.179 299.722L448.549 318.472" stroke="#D6CCBF" stroke-width="8.20581" stroke-miterlimit="10" stroke-linecap="round"/>
<path d="M445.82 289.192L464.309 301.875" stroke="#D6CCBF" stroke-width="8.20581" stroke-miterlimit="10" stroke-linecap="round"/>
<path d="M638.594 143.264C638.594 141.622 639.981 138.212 644.904 135.012C650.648 131.32 654.677 131.365 656.4 132.022C660.503 133.581 662.555 143.674 657.959 148.105C655.744 150.321 652.626 150.403 651.149 150.403C645.158 150.567 638.512 146.71 638.594 143.264Z" fill="black" stroke="black" stroke-width="8.20581" stroke-miterlimit="10"/>
<path d="M533.335 76.1855C541.449 82.271 537.661 79.5666 543.478 84.2995C547.535 88.3565 557.677 80.2428 557.677 80.2428C566.309 73.835 564.414 75.0645 565.791 74.157C573.079 69.502 575.591 73.3519 558.568 54.6671C555.756 51.6014 552.12 47.6708 546.071 44.2637C524.252 31.9845 493.979 39.9822 492.566 48.5982C491.741 53.3857 508.993 64.0144 521.164 70.0999L533.335 76.1855Z" fill="#DAAD89"/>
<path d="M147.921 270.922C149.949 281.065 154.006 287.15 158.063 295.264C164.199 307.536 134.959 314.116 130.052 316.472C129.678 316.658 129.305 316.845 129.24 316.895C119.292 321.3 100.023 326.641 96.2172 328.145C93.7613 329.12 91.654 330.545 91.654 330.545C91.4597 330.695 91.2007 330.895 90.8769 331.146C81.2522 337.977 75.2982 351.023 75.2982 351.023C72.0198 358.293 62.6634 372.429 44.3595 396.678C39.5668 403.063 38.4403 411.241 41.5929 417.857C43.2365 421.319 45.1291 425.103 47.0167 428.479C48.3017 430.675 50.289 434.179 54.4284 435.916C55.3648 436.323 56.2665 436.551 56.5454 436.644C66.9016 438.921 103.903 389.191 133.418 382.507C134.494 382.292 136.173 381.919 137.722 381.646C151.128 379.299 157.598 380.569 169.325 379.933C173.474 379.809 179.238 379.363 186.037 378.114C186.037 378.114 188.842 377.59 191.432 376.923C199.368 375.002 260.943 341.277 279.774 328.145" fill="#F9F7F2"/>
<path d="M147.921 270.922C149.949 281.065 154.006 287.15 158.063 295.264C164.199 307.536 134.959 314.116 130.052 316.472C129.678 316.658 129.305 316.845 129.24 316.895C119.292 321.3 100.023 326.641 96.2172 328.145C93.7613 329.12 91.654 330.545 91.654 330.545C91.4597 330.695 91.2007 330.895 90.8769 331.146C81.2522 337.977 75.2982 351.023 75.2982 351.023C72.0198 358.293 62.6634 372.429 44.3595 396.678C39.5668 403.063 38.4403 411.241 41.5929 417.857C43.2365 421.319 45.1291 425.103 47.0167 428.479C48.3017 430.675 50.289 434.179 54.4284 435.916C55.3648 436.323 56.2665 436.551 56.5454 436.644C66.9016 438.921 103.903 389.191 133.418 382.507C134.494 382.292 136.173 381.919 137.722 381.646C151.128 379.299 157.598 380.569 169.325 379.933C173.474 379.809 179.238 379.363 186.037 378.114C186.037 378.114 188.842 377.59 191.432 376.923C199.368 375.002 260.943 341.277 279.774 328.145L308.174 310.396" stroke="black" stroke-width="8.20581" stroke-miterlimit="10" stroke-linecap="round"/>
<ellipse cx="199.42" cy="165.218" rx="25.0217" ry="12.1383" transform="rotate(-11.1514 199.42 165.218)" fill="#DAAD89"/>
</svg>
