<svg width="740" height="466" viewBox="0 0 740 466" fill="none" xmlns="http://www.w3.org/2000/svg">
<path d="M677.839 68.3779L663.443 80.5776" stroke="black" stroke-width="6.56465" stroke-miterlimit="10" stroke-linecap="round"/>
<path d="M679.784 83.3407L662.022 89.7117" stroke="black" stroke-width="6.56465" stroke-miterlimit="10" stroke-linecap="round"/>
<path d="M156.627 281.01L134.217 283.114" stroke="black" stroke-width="8.20581" stroke-miterlimit="10" stroke-linecap="round"/>
<path d="M160.015 295.975L139.158 304.28" stroke="black" stroke-width="8.20581" stroke-miterlimit="10" stroke-linecap="round"/>
<path d="M609.292 260.723L577.294 262.365" stroke="black" stroke-width="8.20581" stroke-miterlimit="10" stroke-linecap="round"/>
<path d="M608.67 280.002L578.097 270.368" stroke="black" stroke-width="8.20581" stroke-miterlimit="10" stroke-linecap="round"/>
<path d="M514.383 154.639L489.098 134.952" stroke="black" stroke-width="8.20581" stroke-miterlimit="10" stroke-linecap="round"/>
<path d="M500.684 148.965L484.746 147.687L468.807 146.408" stroke="black" stroke-width="8.20581" stroke-miterlimit="10" stroke-linecap="round"/>
<path d="M474.325 376.006C483.258 377.643 493.351 380.21 504.196 383.997C520.957 389.88 534.582 397.268 545.133 404.014C552.149 407.447 559.92 410.823 568.445 413.794C586.075 420.086 602.433 423.59 616.356 425.582C618.56 426.166 621.867 426.576 625.524 425.595C632.49 423.632 636.154 417.428 639.702 411.457C640.051 410.877 640.4 410.181 640.807 409.544C644.821 402.18 641.41 393.066 633.93 389.4C605.286 375.434 591.267 358.588 583.743 345.116C575.698 330.656 575.075 319.805 561.503 274.353C555.901 255.604 550.874 240.336 547.522 230.352" fill="#D6CCBF"/>
<path d="M474.325 376.006C483.258 377.643 493.351 380.21 504.196 383.997C520.957 389.88 534.582 397.268 545.133 404.014C552.149 407.447 559.92 410.823 568.445 413.794C586.075 420.086 602.433 423.59 616.356 425.582C618.56 426.166 621.867 426.576 625.524 425.595C632.49 423.632 636.154 417.428 639.702 411.457C640.051 410.877 640.4 410.181 640.807 409.544C644.821 402.18 641.41 393.066 633.93 389.4C605.286 375.434 591.267 358.588 583.743 345.116C575.698 330.656 575.075 319.805 561.503 274.353C555.901 255.604 550.874 240.336 547.522 230.352" stroke="black" stroke-width="8.20581" stroke-miterlimit="10" stroke-linecap="round"/>
<path d="M268.242 283.125C254.661 294.139 243.414 302.126 235.521 307.34C231.542 309.972 230.971 310.306 219.751 317.653C195.762 333.429 197.038 333.072 194.75 333.997C184.748 338.345 165.382 343.556 161.556 345.037C159.087 345.997 156.967 347.412 156.967 347.412C156.772 347.562 156.511 347.761 156.186 348.011C146.503 354.801 140.492 367.875 140.492 367.875C137.277 374.881 128.479 388.228 111.448 410.665C105.209 418.85 103.901 429.564 108.138 438.205C109.327 440.704 110.632 443.219 111.967 445.504C113.253 447.724 115.24 451.266 119.393 453.047C120.333 453.465 121.238 453.702 121.518 453.798C131.914 456.175 169.195 406.46 198.855 399.984C199.936 399.776 201.623 399.415 203.18 399.154C216.649 396.906 223.145 398.238 234.923 397.696C234.923 397.696 243.424 397.597 251.713 396.007C257.48 394.9 294.167 366.732 324.269 345.037" fill="#D6CCBF"/>
<path d="M268.242 283.125C254.661 294.139 243.414 302.126 235.521 307.34C231.542 309.972 230.971 310.306 219.751 317.653C195.762 333.429 197.038 333.072 194.75 333.997C184.748 338.345 165.382 343.556 161.556 345.037C159.087 345.997 156.967 347.412 156.967 347.412C156.772 347.562 156.511 347.761 156.186 348.011C146.503 354.801 140.492 367.875 140.492 367.875C137.277 374.881 128.479 388.228 111.448 410.665C105.209 418.85 103.901 429.564 108.138 438.205C109.327 440.704 110.632 443.219 111.967 445.504C113.253 447.724 115.24 451.266 119.393 453.047C120.333 453.465 121.238 453.702 121.518 453.798C131.914 456.175 169.195 406.46 198.855 399.984C199.936 399.776 201.623 399.415 203.18 399.154C216.649 396.906 223.145 398.238 234.923 397.696C234.923 397.696 243.424 397.597 251.713 396.007C257.48 394.9 294.167 366.732 324.269 345.037" stroke="black" stroke-width="8.20581" stroke-miterlimit="10" stroke-linecap="round"/>
<path d="M591.786 35.9356C577.5 31.2904 552.883 28.3416 547.567 38.1381C547.216 38.7395 546.614 40.0006 546.597 41.8717C545.873 57.843 584.653 60.1243 596.655 88.3626C599.155 94.3235 597.789 94.937 600.702 100.535C609.605 117.625 632.121 129.694 640.869 123.917C650.841 117.309 644.679 86.4329 631.358 66.0922C629.229 62.8337 616.363 43.9006 591.866 35.9148L591.786 35.9356Z" fill="#EFE4E4" stroke="black" stroke-width="8.20581" stroke-miterlimit="10"/>
<path fill-rule="evenodd" clip-rule="evenodd" d="M473.941 73.7752C472.5 62.7227 494.166 50.6721 508.462 46.0542L508.514 45.9908C533.039 38.0893 554.564 45.8765 558.2 47.2668C566.276 50.3455 574.4 55.0329 581.33 60.2994C597.331 58.1416 610.094 61.8533 612.248 62.5201C627.839 64.4894 659.021 71.3003 672.643 95.4254C678.697 106.058 678.906 115.887 679.103 125.139C679.334 135.953 679.547 145.978 689.055 155.574C691.431 157.987 693.471 159.46 696.62 161.732C700.43 164.482 705.862 168.404 715.477 176.581L715.559 176.417C726.884 186.018 732.546 190.941 732.874 194.634C734.351 210.225 697.835 235.499 662.632 232.052C651.294 230.936 645.44 228.245 640.412 225.935C635.834 223.83 631.94 222.041 625.214 222.041C610.935 221.959 599.201 241.981 595.098 254.864C593.867 258.721 590.995 267.747 592.636 278.907C593.158 282.375 593.804 285.657 594.405 288.706L594.405 288.707C595.979 296.695 597.236 303.08 595.098 307C593.666 309.665 591.772 309.315 589.124 308.827C586.311 308.308 582.646 307.632 577.784 310.254C569.603 314.734 565.994 321.578 562.811 327.614C561.972 329.206 561.162 330.742 560.306 332.163C547.751 352.76 519.194 358.093 495.808 362.443C474.965 366.381 457.733 365.068 425.976 362.36C421.927 361.997 415.972 361.404 409.795 360.788C406.21 360.431 402.549 360.066 399.143 359.735C384.373 358.258 370.669 356.699 356.965 354.811C319.433 349.697 294.049 343.712 273.389 338.841C253.938 334.255 238.675 330.656 221.405 329.701C221.003 329.675 220.543 329.648 220.028 329.619H220.027C214.233 329.289 201.525 328.564 187.433 322.234C171.7 315.187 163.577 305.439 161.92 303.451L161.913 303.443C161.913 303.443 153.625 293.268 149.605 278.415C144.811 260.817 145.059 223.924 163.057 193.113C156.271 192.772 149.183 191.976 141.855 190.597C73.525 177.659 51.5457 120.127 47.3386 109.115C47.1667 108.665 47.0245 108.293 46.91 108.004C44.7587 102.604 48.8104 96.7431 54.6087 96.7212C54.9529 96.7246 55.2917 96.7253 55.6251 96.7259C60.1615 96.7343 63.7181 96.7409 66.8112 103.688C75.6779 123.491 106.014 171.276 154.886 160.869C165.498 158.614 174.125 156.454 181.591 154.585C197.91 150.501 208.681 147.804 222.502 148.533C264.505 137.419 310.291 149.944 321.845 153.112C337.755 157.499 352.013 163.64 365.767 169.563C394.716 182.03 421.426 193.533 456.584 185.689C463.067 184.294 468.154 182.571 471.437 181.34C460.523 178.386 450.59 171.657 451 167.637C451.183 165.843 453.343 165.813 457.043 165.762C461.635 165.698 468.6 165.602 477.099 162.057C493.322 155.312 501.093 148.517 506.397 143.878C510.645 140.163 513.312 137.831 517.471 138.014C517.522 137.865 517.574 137.717 517.625 137.569L517.787 137.1C518.5 135.042 519.197 133.031 519.769 130.957C520.507 128.495 521.164 126.115 521.656 123.9C521.887 121.012 523.337 105.855 533.182 90.6924C526.419 87.5757 516.364 86.8446 506.438 86.1229C493.014 85.1468 479.828 84.188 475.345 77.3682C474.261 75.8426 474.009 74.4681 473.941 73.7752Z" fill="#F9F7F2"/>
<path d="M508.462 46.0542L509.723 49.9585L510.87 49.588L511.634 48.6561L508.462 46.0542ZM473.941 73.7752L478.024 73.3722L478.017 73.3084L478.009 73.2449L473.941 73.7752ZM508.514 45.9908L507.256 42.0855L506.107 42.4557L505.341 43.3889L508.514 45.9908ZM558.2 47.2668L556.734 51.0991L556.738 51.1006L558.2 47.2668ZM581.33 60.2994L578.847 63.5659L580.197 64.5922L581.878 64.3655L581.33 60.2994ZM612.248 62.5201L611.035 66.4395L611.378 66.5456L611.734 66.5906L612.248 62.5201ZM672.643 95.4254L669.07 97.4426L669.074 97.4491L669.078 97.4555L672.643 95.4254ZM679.103 125.139L675.001 125.227L675.001 125.227L679.103 125.139ZM689.055 155.574L691.978 152.695L691.969 152.686L689.055 155.574ZM696.62 161.732L699.021 158.406L699.021 158.406L696.62 161.732ZM715.477 176.581L712.819 179.706L716.806 183.097L719.147 178.416L715.477 176.581ZM715.559 176.417L718.213 173.287L714.228 169.908L711.89 174.581L715.559 176.417ZM732.874 194.634L728.787 194.997L728.788 195.009L728.789 195.021L732.874 194.634ZM662.632 232.052L662.23 236.135L662.232 236.136L662.632 232.052ZM640.412 225.935L642.126 222.207L642.126 222.207L640.412 225.935ZM625.214 222.041L625.19 226.144L625.202 226.144H625.214V222.041ZM595.098 254.864L599.007 256.112L599.008 256.109L595.098 254.864ZM592.636 278.907L588.577 279.504L588.579 279.517L592.636 278.907ZM594.405 288.706L590.379 289.499L590.384 289.525L590.39 289.551L594.405 288.706ZM594.405 288.707L598.431 287.914L598.425 287.888L598.42 287.862L594.405 288.707ZM595.098 307L591.496 305.035L591.49 305.047L591.484 305.058L595.098 307ZM589.124 308.827L589.869 304.792L589.869 304.792L589.124 308.827ZM577.784 310.254L575.837 306.642L575.825 306.648L575.813 306.655L577.784 310.254ZM562.811 327.614L559.182 325.7L559.182 325.7L562.811 327.614ZM560.306 332.163L563.809 334.299L563.815 334.289L563.82 334.28L560.306 332.163ZM495.808 362.443L495.058 358.409L495.046 358.411L495.808 362.443ZM425.976 362.36L425.61 366.447L425.619 366.448L425.628 366.449L425.976 362.36ZM409.795 360.788L410.202 356.706L410.202 356.706L409.795 360.788ZM399.143 359.735L398.735 363.817L398.746 363.818L399.143 359.735ZM356.965 354.811L357.525 350.747L357.519 350.746L356.965 354.811ZM273.389 338.841L274.331 334.848L274.331 334.848L273.389 338.841ZM221.405 329.701L221.133 333.795L221.156 333.797L221.179 333.798L221.405 329.701ZM220.028 329.619L220.261 325.523L220.145 325.516H220.028V329.619ZM220.027 329.619L219.794 333.715L219.911 333.722H220.027V329.619ZM187.433 322.234L189.115 318.491L189.111 318.49L187.433 322.234ZM161.92 303.451L158.763 306.071L158.768 306.078L161.92 303.451ZM161.913 303.443L158.732 306.034L158.744 306.048L158.756 306.063L161.913 303.443ZM149.605 278.415L153.565 277.343L153.563 277.337L149.605 278.415ZM163.057 193.113L166.6 195.183L170.004 189.355L163.264 189.016L163.057 193.113ZM141.855 190.597L141.092 194.629L141.096 194.629L141.855 190.597ZM47.3386 109.115L43.5059 110.579L43.5059 110.579L47.3386 109.115ZM46.91 108.004L50.7233 106.49L50.7216 106.486L46.91 108.004ZM54.6087 96.7212L54.6492 92.6185L54.6212 92.6183L54.5933 92.6184L54.6087 96.7212ZM55.6251 96.7259L55.6327 92.623L55.6327 92.623L55.6251 96.7259ZM66.8112 103.688L63.0629 105.357L63.0665 105.365L66.8112 103.688ZM154.886 160.869L154.033 156.856L154.031 156.856L154.886 160.869ZM181.591 154.585L180.595 150.605L180.595 150.605L181.591 154.585ZM222.502 148.533L222.286 152.63L222.929 152.664L223.552 152.499L222.502 148.533ZM321.845 153.112L322.935 149.157L322.93 149.155L321.845 153.112ZM365.767 169.563L367.39 165.795L367.39 165.795L365.767 169.563ZM456.584 185.689L455.721 181.678L455.706 181.681L455.691 181.685L456.584 185.689ZM471.437 181.34L472.877 185.182L484.806 180.709L472.509 177.38L471.437 181.34ZM451 167.637L455.082 168.053L455.082 168.053L451 167.637ZM457.043 165.762L457.099 169.864L457.099 169.864L457.043 165.762ZM477.099 162.057L475.524 158.268L475.519 158.27L477.099 162.057ZM506.397 143.878L509.098 146.966L509.098 146.966L506.397 143.878ZM517.471 138.014L517.291 142.113L520.352 142.247L521.35 139.351L517.471 138.014ZM517.625 137.569L513.748 136.226L513.747 136.227L517.625 137.569ZM517.787 137.1L513.91 135.757L513.91 135.758L517.787 137.1ZM519.769 130.957L515.839 129.778L515.826 129.821L515.814 129.865L519.769 130.957ZM521.656 123.9L525.661 124.79L525.723 124.511L525.746 124.227L521.656 123.9ZM533.182 90.6924L536.623 92.9267L539.205 88.9506L534.899 86.9662L533.182 90.6924ZM506.438 86.1229L506.141 90.215L506.141 90.215L506.438 86.1229ZM475.345 77.3682L478.773 75.1145L478.733 75.0528L478.69 74.9925L475.345 77.3682ZM507.201 42.15C499.723 44.5653 490.345 48.904 482.93 54.1529C479.227 56.7735 475.831 59.7486 473.425 62.9803C471.036 66.1895 469.321 70.0758 469.872 74.3056L478.009 73.2449C477.84 71.9484 478.293 70.1837 480.007 67.8806C481.705 65.5999 484.349 63.2014 487.67 60.8506C494.302 56.1566 502.905 52.161 509.723 49.9585L507.201 42.15ZM505.341 43.3889L505.289 43.4524L511.634 48.6561L511.686 48.5926L505.341 43.3889ZM559.665 43.4346C555.773 41.9461 533.142 33.7453 507.256 42.0855L509.772 49.896C532.935 42.4332 553.355 49.807 556.734 51.0991L559.665 43.4346ZM583.812 57.0329C576.611 51.5596 568.147 46.6677 559.661 43.433L556.738 51.1006C564.405 54.0232 572.19 58.5062 578.847 63.5659L583.812 57.0329ZM581.878 64.3655C597.034 62.3216 609.14 65.853 611.035 66.4395L613.462 58.6006C611.048 57.8537 597.627 53.9615 580.781 56.2333L581.878 64.3655ZM611.734 66.5906C619.323 67.5492 630.595 69.6766 641.552 74.4285C652.517 79.1841 662.851 86.4273 669.07 97.4426L676.216 93.4081C668.814 80.2983 656.745 72.0736 644.817 66.9002C632.879 61.723 620.765 59.4603 612.763 58.4495L611.734 66.5906ZM669.078 97.4555C674.566 107.095 674.804 115.964 675.001 125.227L683.205 125.052C683.009 115.811 682.828 105.02 676.209 93.3952L669.078 97.4555ZM675.001 125.227C675.231 136.006 675.377 147.599 686.14 158.462L691.969 152.686C683.717 144.357 683.436 135.9 683.205 125.052L675.001 125.227ZM686.131 158.453C688.781 161.144 691.09 162.801 694.218 165.059L699.021 158.406C695.853 156.119 694.08 154.83 691.978 152.695L686.131 158.453ZM694.218 165.059C697.974 167.77 703.314 171.623 712.819 179.706L718.135 173.455C708.411 165.185 702.885 161.194 699.021 158.406L694.218 165.059ZM719.147 178.416L719.229 178.252L711.89 174.581L711.808 174.745L719.147 178.416ZM712.906 179.546C718.616 184.387 722.708 187.892 725.429 190.632C726.782 191.995 727.666 193.042 728.209 193.855C728.76 194.683 728.789 195.019 728.787 194.997L736.961 194.27C736.795 192.402 735.993 190.738 735.036 189.304C734.071 187.856 732.77 186.379 731.252 184.85C728.228 181.805 723.827 178.047 718.213 173.287L712.906 179.546ZM728.789 195.021C729.005 197.303 727.819 200.728 724.323 204.912C720.93 208.975 715.802 213.202 709.43 216.944C696.662 224.442 679.592 229.59 663.032 227.969L662.232 236.136C680.875 237.961 699.665 232.195 713.586 224.02C720.559 219.925 726.483 215.126 730.621 210.173C734.657 205.341 737.481 199.76 736.958 194.247L728.789 195.021ZM663.034 227.969C652.342 226.916 646.962 224.429 642.126 222.207L638.699 229.663C643.918 232.061 650.245 234.955 662.23 236.135L663.034 227.969ZM642.126 222.207C637.449 220.057 632.875 217.938 625.214 217.938V226.144C631.005 226.144 634.219 227.604 638.699 229.663L642.126 222.207ZM625.237 217.938C616.153 217.886 608.584 224.149 603.124 231.044C597.541 238.093 593.367 246.778 591.189 253.619L599.008 256.109C600.932 250.067 604.677 242.299 609.557 236.138C614.559 229.821 619.995 226.114 625.19 226.144L625.237 217.938ZM591.189 253.617C589.925 257.579 586.792 267.365 588.577 279.504L596.696 278.31C595.199 268.13 597.81 259.864 599.007 256.112L591.189 253.617ZM588.579 279.517C589.116 283.091 589.781 286.461 590.379 289.499L598.43 287.913C597.828 284.854 597.199 281.66 596.694 278.297L588.579 279.517ZM590.39 289.551L590.39 289.552L598.42 287.862L598.42 287.861L590.39 289.551ZM590.379 289.5C591.181 293.568 591.832 296.905 592.053 299.703C592.279 302.558 591.982 304.145 591.496 305.035L598.7 308.965C600.353 305.935 600.496 302.369 600.234 299.056C599.967 295.684 599.203 291.834 598.431 287.914L590.379 289.5ZM591.484 305.058C591.319 305.365 591.26 305.362 591.379 305.268C591.528 305.149 591.705 305.083 591.81 305.064C591.86 305.054 591.767 305.08 591.4 305.042C591.018 305.002 590.57 304.922 589.869 304.792L588.38 312.862C589.458 313.061 591.432 313.484 593.324 313.128C595.757 312.672 597.53 311.143 598.712 308.942L591.484 305.058ZM589.869 304.792C586.83 304.232 581.981 303.33 575.837 306.642L579.731 313.865C583.312 311.934 585.791 312.384 588.38 312.862L589.869 304.792ZM575.813 306.655C566.437 311.789 562.347 319.697 559.182 325.7L566.441 329.527C569.641 323.458 572.768 317.678 579.755 313.852L575.813 306.655ZM559.182 325.7C558.331 327.314 557.576 328.743 556.791 330.046L563.82 334.28C564.748 332.74 565.612 331.098 566.441 329.527L559.182 325.7ZM556.802 330.028C551.186 339.241 541.853 345.277 530.652 349.564C519.429 353.859 506.819 356.222 495.058 358.409L496.558 366.476C508.184 364.314 521.545 361.836 533.585 357.227C545.648 352.611 556.87 345.682 563.809 334.299L556.802 330.028ZM495.046 358.411C474.843 362.229 458.168 360.988 426.325 358.272L425.628 366.449C457.298 369.149 475.087 370.534 496.57 366.474L495.046 358.411ZM426.343 358.274C422.318 357.913 416.388 357.322 410.202 356.706L409.389 364.871C415.556 365.485 421.535 366.081 425.61 366.447L426.343 358.274ZM410.202 356.706C406.617 356.348 402.952 355.983 399.541 355.651L398.746 363.818C402.146 364.149 405.802 364.514 409.389 364.871L410.202 356.706ZM399.552 355.652C384.816 354.178 371.165 352.625 357.525 350.747L356.406 358.876C370.174 360.772 383.93 362.337 398.735 363.817L399.552 355.652ZM357.519 350.746C320.188 345.659 294.957 339.711 274.331 334.848L272.447 342.834C293.14 347.713 318.679 353.735 356.412 358.877L357.519 350.746ZM274.331 334.848C254.937 330.275 239.323 326.583 221.632 325.605L221.179 333.798C238.027 334.73 252.939 338.235 272.447 342.834L274.331 334.848ZM221.678 325.608C221.253 325.579 220.771 325.552 220.261 325.523L219.794 333.715C220.315 333.745 220.754 333.77 221.133 333.795L221.678 325.608ZM220.028 325.516H220.027V333.722H220.028V325.516ZM220.261 325.523C214.561 325.198 202.486 324.498 189.115 318.491L185.752 325.977C200.564 332.63 213.904 333.379 219.794 333.715L220.261 325.523ZM189.111 318.49C174.195 311.809 166.549 302.597 165.072 300.824L158.768 306.078C160.604 308.281 169.205 318.565 185.756 325.979L189.111 318.49ZM165.077 300.831L165.071 300.822L158.756 306.063L158.763 306.071L165.077 300.831ZM161.913 303.443C165.094 300.852 165.095 300.852 165.096 300.853C165.096 300.853 165.096 300.854 165.096 300.854C165.097 300.855 165.097 300.855 165.098 300.856C165.098 300.856 165.099 300.857 165.098 300.856C165.097 300.855 165.095 300.852 165.09 300.846C165.081 300.835 165.064 300.813 165.04 300.783C164.992 300.722 164.914 300.623 164.811 300.487C164.604 300.216 164.294 299.8 163.904 299.25C163.123 298.147 162.028 296.511 160.808 294.427C158.361 290.244 155.455 284.326 153.565 277.343L145.644 279.487C147.774 287.356 151.023 293.952 153.725 298.571C155.08 300.886 156.308 302.722 157.207 303.992C157.657 304.627 158.025 305.122 158.288 305.466C158.419 305.637 158.524 305.772 158.599 305.867C158.636 305.914 158.666 305.952 158.689 305.98C158.7 305.994 158.709 306.005 158.716 306.014C158.72 306.019 158.723 306.023 158.726 306.026C158.727 306.028 158.728 306.029 158.729 306.03C158.73 306.031 158.731 306.032 158.731 306.032C158.731 306.033 158.732 306.034 161.913 303.443ZM153.563 277.337C149.028 260.686 149.215 224.944 166.6 195.183L159.514 191.044C140.904 222.904 140.594 260.949 145.646 279.493L153.563 277.337ZM163.264 189.016C156.653 188.683 149.751 187.908 142.614 186.565L141.096 194.629C148.616 196.044 155.888 196.86 162.851 197.211L163.264 189.016ZM142.619 186.566C76.5986 174.065 55.3259 118.525 51.1714 107.651L43.5059 110.579C47.7655 121.729 70.4513 181.253 141.092 194.629L142.619 186.566ZM51.1714 107.651C51.0032 107.211 50.85 106.809 50.7233 106.49L43.0966 109.518C43.199 109.776 43.3302 110.119 43.5059 110.579L51.1714 107.651ZM50.7216 106.486C49.6659 103.836 51.6523 100.835 54.6242 100.824L54.5933 92.6184C45.9685 92.6508 39.8514 101.373 43.0984 109.523L50.7216 106.486ZM54.5683 100.824C54.9315 100.828 55.2865 100.828 55.6175 100.829L55.6327 92.623C55.2968 92.6224 54.9743 92.6217 54.6492 92.6185L54.5683 100.824ZM55.6175 100.829C58.0816 100.833 59.1381 100.904 60.0059 101.314C60.6498 101.619 61.749 102.406 63.0629 105.357L70.5594 102.02C68.7804 98.0236 66.5547 95.3335 63.5129 93.8956C60.6951 92.5636 57.705 92.6268 55.6327 92.623L55.6175 100.829ZM63.0665 105.365C67.6551 115.613 77.7577 133.055 93.1251 146.678C108.57 160.369 129.652 170.437 155.74 164.882L154.031 156.856C131.248 161.708 112.726 153.087 98.5684 140.537C84.333 127.918 74.834 111.566 70.5558 102.012L63.0665 105.365ZM155.739 164.882C166.429 162.61 175.12 160.435 182.588 158.565L180.595 150.605C173.13 152.474 164.566 154.617 154.033 156.856L155.739 164.882ZM182.588 158.565C198.984 154.461 209.173 151.939 222.286 152.63L222.718 144.436C208.189 143.67 196.836 146.54 180.595 150.605L182.588 158.565ZM223.552 152.499C264.367 141.699 309.16 153.888 320.76 157.069L322.93 149.155C311.422 146 264.642 133.138 221.453 144.567L223.552 152.499ZM320.754 157.068C336.351 161.368 350.361 167.396 364.144 173.331L367.39 165.795C353.666 159.884 339.158 153.63 322.935 149.157L320.754 157.068ZM364.144 173.331C393.01 185.763 420.872 197.861 457.477 189.694L455.691 181.685C421.981 189.206 396.422 178.298 367.39 165.795L364.144 173.331ZM457.447 189.7C464.177 188.252 469.463 186.462 472.877 185.182L469.996 177.499C466.845 178.68 461.956 180.336 455.721 181.678L457.447 189.7ZM472.509 177.38C467.46 176.013 462.664 173.773 459.262 171.484C457.55 170.333 456.34 169.268 455.626 168.419C454.788 167.421 455.153 167.359 455.082 168.053L446.918 167.22C446.642 169.924 448.095 172.211 449.344 173.698C450.719 175.335 452.597 176.89 454.681 178.293C458.872 181.112 464.499 183.713 470.365 185.301L472.509 177.38ZM455.082 168.053C455.063 168.237 455.006 168.517 454.851 168.835C454.693 169.161 454.476 169.438 454.236 169.652C453.798 170.044 453.448 170.085 453.631 170.042C453.792 170.005 454.133 169.955 454.778 169.921C455.409 169.888 456.151 169.877 457.099 169.864L456.986 161.659C455.34 161.682 453.336 161.686 451.775 162.049C450.932 162.245 449.776 162.632 448.766 163.536C447.635 164.547 447.056 165.87 446.918 167.22L455.082 168.053ZM457.099 169.864C461.794 169.799 469.42 169.705 478.678 165.843L475.519 158.27C467.78 161.498 461.476 161.597 456.986 161.659L457.099 169.864ZM478.674 165.845C495.474 158.861 503.628 151.75 509.098 146.966L503.697 140.789C498.557 145.284 491.17 151.763 475.524 158.268L478.674 165.845ZM509.098 146.966C513.656 142.98 515.065 142.015 517.291 142.113L517.651 133.915C511.559 133.647 507.633 137.346 503.697 140.789L509.098 146.966ZM521.35 139.351C521.401 139.204 521.451 139.057 521.502 138.91L513.747 136.227C513.696 136.376 513.644 136.526 513.592 136.676L521.35 139.351ZM521.502 138.911L521.664 138.443L513.91 135.758L513.748 136.226L521.502 138.911ZM521.664 138.443C522.37 136.406 523.111 134.27 523.724 132.048L515.814 129.865C515.282 131.791 514.63 133.679 513.91 135.757L521.664 138.443ZM523.699 132.135C524.451 129.626 525.139 127.141 525.661 124.79L517.651 123.009C517.189 125.089 516.563 127.363 515.839 129.778L523.699 132.135ZM525.746 124.227C525.956 121.602 527.325 107.247 536.623 92.9267L529.741 88.4581C519.349 104.463 517.818 120.423 517.566 123.572L525.746 124.227ZM506.141 90.215C511.135 90.5781 515.981 90.9323 520.411 91.5705C524.867 92.2123 528.615 93.1053 531.465 94.4186L534.899 86.9662C530.986 85.1628 526.325 84.1319 521.581 83.4485C516.812 82.7615 511.667 82.3893 506.736 82.0308L506.141 90.215ZM471.916 79.6219C475.097 84.461 480.938 86.6895 486.659 87.9445C492.541 89.2347 499.514 89.7331 506.141 90.215L506.736 82.0308C499.938 81.5365 493.606 81.0675 488.418 79.9293C483.069 78.7559 480.075 77.0951 478.773 75.1145L471.916 79.6219ZM469.857 74.1782C469.975 75.3646 470.392 77.4809 472 79.7439L478.69 74.9925C478.13 74.2042 478.043 73.5716 478.024 73.3722L469.857 74.1782Z" fill="black"/>
<path d="M616.684 142.935C627.27 151.715 656.4 141.048 659.108 127.18C659.272 126.277 659.518 124.39 658.452 120.369C654.595 106.419 640.563 90.3359 629.731 92.3053C614.715 95.0132 604.54 132.842 616.766 142.935H616.684Z" fill="#DAAD89"/>
<path d="M731.398 194.96L722.536 185.852C722.536 185.852 713.181 180.928 715.807 194.96C718.433 208.992 721.387 207.105 721.387 207.105L731.398 194.96Z" fill="black" stroke="black" stroke-width="8.20581" stroke-miterlimit="10"/>
<path d="M406.725 342.373C410.571 346.894 452.118 392.046 461.075 398.31C466.221 401.826 465.539 400.702 472.229 405.143C482.194 411.705 490.477 418.437 497.203 424.654C497.666 425.032 498.014 425.389 498.544 425.72C504.71 430.126 511.515 434.589 519.092 439.013C535.348 448.294 550.84 454.609 564.199 459.009C566.266 459.969 569.45 460.953 573.222 460.627C580.424 459.914 585.118 454.448 589.657 449.19C590.19 448.52 590.79 447.802 591.458 447.038C596.362 440.725 594.835 431.491 588.367 426.794C562.222 407.899 551.324 388.791 546.249 374.028C541.173 359.264 542.848 356.499 536.744 300.464C534.626 281.044 531.422 280.439 529.757 270.001" fill="#F9F7F2"/>
<path d="M406.725 342.373C410.571 346.894 452.118 392.046 461.075 398.31C466.221 401.826 465.539 400.702 472.229 405.143C482.194 411.705 490.477 418.437 497.203 424.654C497.666 425.032 498.014 425.389 498.544 425.72C504.71 430.126 511.515 434.589 519.092 439.013C535.348 448.294 550.84 454.609 564.199 459.009C566.266 459.969 569.45 460.953 573.222 460.627C580.424 459.914 585.118 454.448 589.657 449.19C590.19 448.52 590.79 447.802 591.458 447.038C596.362 440.725 594.835 431.491 588.367 426.794C562.222 407.899 551.324 388.791 546.249 374.028C541.173 359.264 542.848 356.499 536.744 300.464C534.626 281.044 531.422 280.439 529.757 270.001" stroke="black" stroke-width="8.20581" stroke-miterlimit="10" stroke-linecap="round"/>
<path d="M255.29 220.311L232.802 220.991" stroke="#D6CCBF" stroke-width="8.20581" stroke-miterlimit="10" stroke-linecap="round"/>
<path d="M259.258 234.028L238.693 243.178" stroke="#D6CCBF" stroke-width="8.20581" stroke-miterlimit="10" stroke-linecap="round"/>
<path d="M438.055 295.455L443.851 317.157" stroke="#D6CCBF" stroke-width="8.20581" stroke-miterlimit="10" stroke-linecap="round"/>
<path d="M450.534 288.52L464.055 306.406" stroke="#D6CCBF" stroke-width="8.20581" stroke-miterlimit="10" stroke-linecap="round"/>
<path d="M525.857 84.9578C535.703 87.3946 531.159 86.383 538.362 88.4707C543.681 90.623 549.853 79.1947 549.853 79.1947C555.3 69.9266 554.035 71.7982 554.949 70.4252C559.842 63.2953 563.658 65.8597 540.693 55.2992C536.907 53.5738 532.026 51.3737 525.127 50.5969C500.247 47.8053 475.494 66.9823 477.556 75.4664C478.664 80.1964 498.696 83.2504 512.277 84.1041L525.857 84.9578Z" fill="#DAAD89"/>
<path d="M147.921 270.922C149.949 281.065 154.006 287.15 158.063 295.264C164.199 307.536 134.959 314.116 130.052 316.472C129.678 316.658 129.305 316.845 129.24 316.895C119.292 321.3 100.023 326.641 96.2172 328.145C93.7613 329.12 91.654 330.545 91.654 330.545C91.4597 330.695 91.2007 330.895 90.8769 331.146C81.2522 337.977 75.2982 351.023 75.2982 351.023C72.0198 358.293 62.6634 372.429 44.3595 396.678C39.5668 403.063 38.4403 411.241 41.5929 417.857C43.2365 421.319 45.1291 425.103 47.0167 428.479C48.3017 430.675 50.289 434.179 54.4284 435.916C55.3648 436.323 56.2665 436.551 56.5454 436.644C66.9016 438.921 103.903 389.191 133.418 382.507C134.494 382.292 136.173 381.919 137.722 381.646C151.128 379.299 157.598 380.569 169.325 379.933C173.474 379.809 179.238 379.363 186.037 378.114C186.037 378.114 188.842 377.59 191.432 376.923C199.368 375.002 260.943 341.277 279.774 328.145" fill="#F9F7F2"/>
<path d="M147.921 270.922C149.949 281.065 154.006 287.15 158.063 295.264C164.199 307.536 134.959 314.116 130.052 316.472C129.678 316.658 129.305 316.845 129.24 316.895C119.292 321.3 100.023 326.641 96.2172 328.145C93.7613 329.12 91.654 330.545 91.654 330.545C91.4597 330.695 91.2007 330.895 90.8769 331.146C81.2522 337.977 75.2982 351.023 75.2982 351.023C72.0198 358.293 62.6634 372.429 44.3595 396.678C39.5668 403.063 38.4403 411.241 41.5929 417.857C43.2365 421.319 45.1291 425.103 47.0167 428.479C48.3017 430.675 50.289 434.179 54.4284 435.916C55.3648 436.323 56.2665 436.551 56.5454 436.644C66.9016 438.921 103.903 389.191 133.418 382.507C134.494 382.292 136.173 381.919 137.722 381.646C151.128 379.299 157.598 380.569 169.325 379.933C173.474 379.809 179.238 379.363 186.037 378.114C186.037 378.114 188.842 377.59 191.432 376.923C199.368 375.002 260.943 341.277 279.774 328.145L308.174 310.396" stroke="black" stroke-width="8.20581" stroke-miterlimit="10" stroke-linecap="round"/>
<ellipse cx="199.42" cy="165.218" rx="25.0217" ry="12.1383" transform="rotate(-11.1514 199.42 165.218)" fill="#DAAD89"/>
<path d="M639.001 142.391C639.001 140.708 650.282 143.451 650.282 143.451L660.311 142.198C660.311 142.198 662.823 142.812 658.254 147.357C656.052 149.63 652.951 149.714 651.483 149.714C645.527 149.882 638.919 145.926 639.001 142.391Z" fill="black" stroke="black" stroke-width="7.81232" stroke-miterlimit="10"/>
</svg>
