<svg width="428" height="466" viewBox="0 0 428 466" fill="none" xmlns="http://www.w3.org/2000/svg">
<path d="M369.166 71.3L351.691 78.4208" stroke="#231F20" stroke-width="6.56465" stroke-miterlimit="10" stroke-linecap="round"/>
<path d="M366.365 86.1263L347.502 86.6609" stroke="#231F20" stroke-width="6.56465" stroke-miterlimit="10" stroke-linecap="round"/>
<path d="M294.566 257.285L263.789 266.192" stroke="#231F20" stroke-width="8.20581" stroke-miterlimit="10" stroke-linecap="round"/>
<path d="M298.364 276.197L266.398 273.8" stroke="#231F20" stroke-width="8.20581" stroke-miterlimit="10" stroke-linecap="round"/>
<path d="M201.099 157.578L178.562 134.797" stroke="#231F20" stroke-width="8.20581" stroke-miterlimit="10" stroke-linecap="round"/>
<path d="M188.246 150.186L172.605 146.864L156.964 143.543" stroke="#231F20" stroke-width="8.20581" stroke-miterlimit="10" stroke-linecap="round"/>
<path d="M162.325 376.006C171.258 377.643 181.351 380.21 192.196 383.997C208.957 389.88 222.582 397.268 233.133 404.014C240.149 407.447 247.92 410.823 256.445 413.794C274.075 420.086 290.433 423.59 304.356 425.582C306.56 426.166 309.867 426.576 313.524 425.595C320.49 423.632 324.154 417.428 327.702 411.457C328.051 410.877 328.4 410.181 328.807 409.544C332.821 402.18 329.41 393.066 321.93 389.4C293.286 375.434 279.267 358.588 271.743 345.116C263.698 330.656 263.075 319.805 249.503 274.353C243.901 255.604 238.874 240.336 235.522 230.352" fill="#D6CCBF"/>
<path d="M162.325 376.006C171.258 377.643 181.351 380.21 192.196 383.997C208.957 389.88 222.582 397.268 233.133 404.014C240.149 407.447 247.92 410.823 256.445 413.794C274.075 420.086 290.433 423.59 304.356 425.582C306.56 426.166 309.867 426.576 313.524 425.595C320.49 423.632 324.154 417.428 327.702 411.457C328.051 410.877 328.4 410.181 328.807 409.544C332.821 402.18 329.41 393.066 321.93 389.4C293.286 375.434 279.267 358.588 271.743 345.116C263.698 330.656 263.075 319.805 249.503 274.353C243.901 255.604 238.874 240.336 235.522 230.352" stroke="black" stroke-width="8.20581" stroke-miterlimit="10" stroke-linecap="round"/>
<path d="M-43.7583 283.125C-57.3391 294.139 -68.5859 302.126 -76.4788 307.34C-80.4578 309.972 -81.029 310.306 -92.2492 317.653C-116.238 333.429 -114.962 333.072 -117.25 333.997C-127.252 338.345 -146.618 343.556 -150.444 345.037C-152.913 345.997 -155.033 347.412 -155.033 347.412C-155.228 347.562 -155.489 347.761 -155.814 348.011C-165.497 354.801 -171.508 367.875 -171.508 367.875C-174.723 374.881 -183.521 388.228 -200.552 410.665C-206.791 418.85 -208.099 429.564 -203.862 438.205C-202.673 440.704 -201.368 443.219 -200.033 445.504C-198.747 447.724 -196.76 451.266 -192.607 453.047C-191.667 453.465 -190.762 453.702 -190.482 453.798C-180.086 456.175 -142.805 406.46 -113.145 399.984C-112.064 399.776 -110.377 399.415 -108.82 399.154C-95.3513 396.906 -88.8555 398.238 -77.0766 397.696C-77.0766 397.696 -68.576 397.597 -60.2868 396.007C-54.5204 394.9 -17.8335 366.732 12.2691 345.037" fill="#D6CCBF"/>
<path d="M-43.7583 283.125C-57.3391 294.139 -68.5859 302.126 -76.4788 307.34C-80.4578 309.972 -81.029 310.306 -92.2492 317.653C-116.238 333.429 -114.962 333.072 -117.25 333.997C-127.252 338.345 -146.618 343.556 -150.444 345.037C-152.913 345.997 -155.033 347.412 -155.033 347.412C-155.228 347.562 -155.489 347.761 -155.814 348.011C-165.497 354.801 -171.508 367.875 -171.508 367.875C-174.723 374.881 -183.521 388.228 -200.552 410.665C-206.791 418.85 -208.099 429.564 -203.862 438.205C-202.673 440.704 -201.368 443.219 -200.033 445.504C-198.747 447.724 -196.76 451.266 -192.607 453.047C-191.667 453.465 -190.762 453.702 -190.482 453.798C-180.086 456.175 -142.805 406.46 -113.145 399.984C-112.064 399.776 -110.377 399.415 -108.82 399.154C-95.3513 396.906 -88.8555 398.238 -77.0766 397.696C-77.0766 397.696 -68.576 397.597 -60.2868 396.007C-54.5204 394.9 -17.8335 366.732 12.2691 345.037" stroke="black" stroke-width="8.20581" stroke-miterlimit="10" stroke-linecap="round"/>
<path d="M305.464 40.343C296.452 28.3231 278.016 11.747 268.031 16.7003C267.398 16.9901 266.18 17.6752 265.089 19.1955C255.307 31.8413 285.711 56.0212 279.278 86.0225C277.893 92.3362 276.423 92.052 275.584 98.3065C273.032 117.406 284.502 140.234 294.981 140.543C306.939 140.876 319.666 112.078 320.475 87.7769C320.609 83.8868 320.981 60.999 305.54 40.3716L305.464 40.343Z" fill="#EFE4E4" stroke="#231F20" stroke-width="8.20581" stroke-miterlimit="10"/>
<path fill-rule="evenodd" clip-rule="evenodd" d="M178.194 46.5201C181.18 35.7815 205.831 33.1409 220.795 34.4675L220.868 34.4294C246.532 36.7244 263.312 52.294 266.117 54.9927C267.786 56.5953 269.414 58.3054 270.985 60.0955C286.204 58.3957 298.169 61.8765 300.248 62.5201C315.839 64.4895 347.021 71.3003 360.643 95.4254C366.697 106.058 366.906 115.887 367.103 125.139C367.334 135.953 367.547 145.978 377.055 155.574C379.431 157.987 381.471 159.46 384.62 161.732C388.43 164.482 393.862 168.404 403.477 176.581L403.559 176.417C414.883 186.018 420.546 190.941 420.874 194.634C422.351 210.225 385.835 235.499 350.632 232.052C339.294 230.936 333.44 228.245 328.412 225.935C323.834 223.831 319.94 222.041 313.214 222.041C298.935 221.959 287.201 241.981 283.098 254.864C281.867 258.721 278.995 267.747 280.636 278.907C281.465 284.418 283.099 288.506 284.423 291.816C286.115 296.048 287.299 299.009 285.642 302.048C284.002 305.099 280.972 305.724 276.987 306.546C273.792 307.204 269.983 307.99 265.784 310.254C257.603 314.734 253.994 321.578 250.811 327.614C249.972 329.206 249.162 330.742 248.306 332.163C235.751 352.76 207.194 358.093 183.808 362.443C162.965 366.381 145.733 365.068 113.976 362.361C109.927 361.997 103.972 361.404 97.7956 360.788H97.7952C94.2095 360.431 90.5491 360.066 87.1434 359.735C72.3729 358.258 58.6691 356.699 44.9654 354.811C7.4333 349.697 -17.9512 343.712 -38.6111 338.841C-58.0618 334.255 -73.3248 330.656 -90.5946 329.701C-90.9965 329.675 -91.457 329.648 -91.9721 329.619C-97.7665 329.289 -110.475 328.564 -124.567 322.234C-140.3 315.187 -148.423 305.439 -150.08 303.451L-150.087 303.443C-150.087 303.443 -158.375 293.268 -162.395 278.415C-167.189 260.818 -166.941 223.924 -148.943 193.113C-155.729 192.772 -162.817 191.976 -170.145 190.597C-238.475 177.659 -260.454 120.127 -264.661 109.115C-264.833 108.665 -264.976 108.293 -265.09 108.004C-267.241 102.604 -263.19 96.7431 -257.391 96.7212C-257.047 96.7246 -256.708 96.7253 -256.375 96.7259C-251.839 96.7343 -248.282 96.7409 -245.189 103.688C-236.322 123.491 -205.986 171.276 -157.114 160.869C-146.502 158.614 -137.875 156.454 -130.409 154.585C-114.09 150.501 -103.319 147.804 -89.4979 148.533C-47.4955 137.419 -1.70925 149.944 9.84459 153.112C25.7546 157.499 40.0133 163.64 53.7667 169.563C82.716 182.03 109.426 193.533 144.584 185.689C151.067 184.294 156.154 182.571 159.437 181.34C157.704 180.871 156.033 180.441 154.449 180.034C146.062 177.877 140.136 176.353 140.481 172.97C140.736 170.472 144.254 169.336 150.562 167.299C154.406 166.057 159.288 164.48 165.099 162.057C181.322 155.312 189.093 148.517 194.398 143.878C198.645 140.163 201.312 137.831 205.471 138.014C205.577 137.708 205.682 137.403 205.787 137.1L205.787 137.099C206.5 135.042 207.197 133.03 207.769 130.957C208.507 128.495 209.164 126.115 209.656 123.9C209.918 120.626 211.747 101.583 225.598 84.6396C220.501 79.3838 211.845 74.9493 203.297 70.57C191.318 64.4331 179.551 58.4045 178.085 50.3761C177.682 48.5486 177.986 47.1847 178.194 46.5201Z" fill="#F9F7F2"/>
<path d="M220.795 34.4675L220.433 38.5544L221.634 38.6608L222.701 38.1011L220.795 34.4675ZM178.194 46.5201L182.11 47.7422L182.129 47.681L182.147 47.6193L178.194 46.5201ZM220.868 34.4294L221.234 30.3428L220.031 30.2353L218.963 30.7958L220.868 34.4294ZM266.117 54.9927L263.272 57.9493L263.275 57.9523L266.117 54.9927ZM270.985 60.0955L267.901 62.802L269.313 64.4106L271.44 64.173L270.985 60.0955ZM300.248 62.5201L299.035 66.4395L299.378 66.5456L299.734 66.5906L300.248 62.5201ZM360.643 95.4254L357.07 97.4426L357.074 97.4491L357.078 97.4555L360.643 95.4254ZM367.103 125.139L363.001 125.227V125.227L367.103 125.139ZM377.055 155.574L379.978 152.695L379.969 152.686L377.055 155.574ZM384.62 161.732L382.218 165.059V165.059L384.62 161.732ZM403.477 176.581L400.819 179.706L404.807 183.098L407.147 178.415L403.477 176.581ZM403.559 176.417L406.213 173.287L402.226 169.907L399.889 174.582L403.559 176.417ZM420.874 194.634L416.787 194.997L416.788 195.009L416.789 195.021L420.874 194.634ZM350.632 232.052L350.23 236.135L350.232 236.136L350.632 232.052ZM328.412 225.935L330.126 222.207L328.412 225.935ZM313.214 222.041L313.19 226.144L313.202 226.144H313.214V222.041ZM283.098 254.864L287.007 256.112L287.008 256.109L283.098 254.864ZM280.636 278.907L276.577 279.504L276.579 279.517L280.636 278.907ZM284.423 291.816L280.614 293.34V293.34L284.423 291.816ZM285.642 302.048L282.04 300.083L282.034 300.094L282.028 300.106L285.642 302.048ZM276.987 306.546L276.158 302.527L276.158 302.527L276.987 306.546ZM265.784 310.254L263.837 306.642L263.825 306.648L263.813 306.655L265.784 310.254ZM250.811 327.614L247.182 325.7L247.182 325.7L250.811 327.614ZM248.306 332.163L251.809 334.299L251.814 334.289L251.82 334.28L248.306 332.163ZM183.808 362.443L183.058 358.409L183.046 358.411L183.808 362.443ZM113.976 362.361L113.61 366.447L113.619 366.448L113.628 366.449L113.976 362.361ZM97.7956 360.788L98.2025 356.706L97.9996 356.685H97.7956V360.788ZM97.7952 360.788L97.3883 364.871L97.5913 364.891H97.7952V360.788ZM87.1434 359.735L86.7351 363.817L86.7458 363.818L87.1434 359.735ZM44.9654 354.811L45.5252 350.747L45.5194 350.746L44.9654 354.811ZM-38.6111 338.841L-37.6695 334.848L-38.6111 338.841ZM-90.5946 329.701L-90.8675 333.795L-90.8443 333.797L-90.8211 333.798L-90.5946 329.701ZM-91.9721 329.619L-92.2056 333.715H-92.2056L-91.9721 329.619ZM-124.567 322.234L-122.885 318.491L-122.889 318.49L-124.567 322.234ZM-150.08 303.451L-146.928 300.824L-146.929 300.823L-150.08 303.451ZM-150.087 303.443L-153.268 306.034L-153.253 306.052L-153.238 306.071L-150.087 303.443ZM-162.395 278.415L-158.435 277.343L-158.437 277.337L-162.395 278.415ZM-148.943 193.113L-145.4 195.183L-141.996 189.355L-148.737 189.016L-148.943 193.113ZM-170.145 190.597L-170.908 194.629L-170.904 194.629L-170.145 190.597ZM-264.661 109.115L-268.494 110.579L-268.494 110.579L-264.661 109.115ZM-265.09 108.004L-261.277 106.49L-261.278 106.486L-265.09 108.004ZM-257.391 96.7212L-257.351 92.6185L-257.379 92.6183L-257.407 92.6184L-257.391 96.7212ZM-256.375 96.7259L-256.367 92.623H-256.367L-256.375 96.7259ZM-245.189 103.688L-248.937 105.357L-248.934 105.365L-245.189 103.688ZM-157.114 160.869L-157.967 156.856L-157.969 156.856L-157.114 160.869ZM-130.409 154.585L-131.405 150.605V150.605L-130.409 154.585ZM-89.4979 148.533L-89.7139 152.63L-89.0709 152.664L-88.4483 152.499L-89.4979 148.533ZM9.84459 153.112L10.9352 149.157L10.9295 149.155L9.84459 153.112ZM53.7667 169.563L52.1438 173.331L53.7667 169.563ZM144.584 185.689L143.721 181.678L143.706 181.682L143.691 181.685L144.584 185.689ZM159.437 181.34L160.877 185.182L172.806 180.709L160.508 177.38L159.437 181.34ZM154.449 180.034L153.427 184.008L154.449 180.034ZM140.481 172.97L136.399 172.554V172.554L140.481 172.97ZM150.562 167.299L151.823 171.203V171.203L150.562 167.299ZM165.099 162.057L163.524 158.268L163.519 158.27L165.099 162.057ZM194.398 143.878L197.098 146.966V146.966L194.398 143.878ZM205.471 138.014L205.291 142.113L208.351 142.247L209.35 139.351L205.471 138.014ZM205.787 137.1L209.664 138.443L209.672 138.42L209.68 138.397L205.787 137.1ZM205.787 137.099L201.911 135.756L201.903 135.779L201.895 135.802L205.787 137.099ZM207.769 130.957L203.839 129.778L203.826 129.821L203.814 129.866L207.769 130.957ZM209.656 123.9L213.661 124.79L213.723 124.511L213.746 124.227L209.656 123.9ZM225.598 84.6396L228.775 87.2365L231.088 84.4068L228.543 81.7831L225.598 84.6396ZM203.297 70.57L201.426 74.2216L203.297 70.57ZM178.085 50.3761L182.121 49.639L182.107 49.5662L182.092 49.4941L178.085 50.3761ZM221.158 30.3807C213.331 29.6868 203.003 30.0219 194.127 31.961C189.696 32.9292 185.408 34.3433 181.932 36.3799C178.48 38.4023 175.384 41.3112 174.241 45.4208L182.147 47.6193C182.497 46.3597 183.602 44.9115 186.08 43.4601C188.533 42.0228 191.903 40.8462 195.879 39.9777C203.816 38.2436 213.296 37.9217 220.433 38.5544L221.158 30.3807ZM218.963 30.7958L218.89 30.834L222.701 38.1011L222.774 38.063L218.963 30.7958ZM268.962 52.0362C265.959 49.1468 248.322 32.7652 221.234 30.3428L220.503 38.516C244.742 40.6835 260.666 55.4411 263.272 57.9493L268.962 52.0362ZM274.068 57.3889C272.426 55.5175 270.718 53.7223 268.959 52.0331L263.275 57.9523C264.854 59.4683 266.401 61.0932 267.901 62.802L274.068 57.3889ZM271.44 64.173C285.864 62.5622 297.211 65.8749 299.035 66.4395L301.461 58.6006C299.127 57.8781 286.545 54.2292 270.529 56.0179L271.44 64.173ZM299.734 66.5906C307.323 67.5492 318.595 69.6766 329.552 74.4285C340.517 79.1841 350.851 86.4273 357.07 97.4426L364.216 93.4081C356.814 80.2983 344.745 72.0736 332.817 66.9002C320.879 61.723 308.765 59.4604 300.763 58.4495L299.734 66.5906ZM357.078 97.4555C362.566 107.095 362.804 115.964 363.001 125.227L371.205 125.052C371.008 115.811 370.828 105.02 364.209 93.3952L357.078 97.4555ZM363.001 125.227C363.231 136.006 363.377 147.599 374.14 158.462L379.969 152.686C371.717 144.357 371.436 135.9 371.205 125.052L363.001 125.227ZM374.131 158.453C376.781 161.144 379.09 162.801 382.218 165.059L387.021 158.406C383.853 156.119 382.08 154.83 379.978 152.695L374.131 158.453ZM382.218 165.059C385.974 167.77 391.314 171.623 400.819 179.706L406.136 173.455C396.411 165.185 390.885 161.194 387.021 158.406L382.218 165.059ZM407.147 178.415L407.229 178.251L399.889 174.582L399.807 174.746L407.147 178.415ZM400.906 179.546C406.616 184.387 410.708 187.892 413.429 190.632C414.782 191.995 415.666 193.042 416.209 193.855C416.76 194.683 416.789 195.019 416.787 194.997L424.961 194.27C424.795 192.402 423.993 190.738 423.036 189.304C422.071 187.856 420.77 186.379 419.252 184.85C416.228 181.805 411.827 178.047 406.213 173.287L400.906 179.546ZM416.789 195.021C417.005 197.303 415.819 200.728 412.323 204.912C408.93 208.975 403.802 213.202 397.43 216.944C384.662 224.442 367.592 229.59 351.032 227.969L350.232 236.136C368.875 237.961 387.665 232.195 401.586 224.02C408.559 219.925 414.483 215.126 418.621 210.173C422.657 205.341 425.481 199.76 424.958 194.247L416.789 195.021ZM351.034 227.969C340.342 226.916 334.962 224.429 330.126 222.207L326.699 229.663C331.918 232.061 338.245 234.955 350.23 236.135L351.034 227.969ZM330.126 222.207C325.449 220.057 320.875 217.938 313.214 217.938V226.144C319.005 226.144 322.219 227.604 326.699 229.663L330.126 222.207ZM313.237 217.938C304.153 217.886 296.584 224.149 291.124 231.044C285.541 238.094 281.367 246.778 279.189 253.619L287.008 256.109C288.932 250.067 292.677 242.299 297.557 236.138C302.559 229.821 307.995 226.114 313.19 226.144L313.237 217.938ZM279.189 253.617C277.925 257.579 274.792 267.365 276.577 279.504L284.696 278.31C283.199 268.13 285.809 259.864 287.007 256.112L279.189 253.617ZM276.579 279.517C277.484 285.535 279.279 290.003 280.614 293.34L288.233 290.293C286.92 287.009 285.446 283.301 284.694 278.297L276.579 279.517ZM280.614 293.34C281.508 295.577 282.041 296.957 282.252 298.115C282.424 299.058 282.324 299.562 282.04 300.083L289.244 304.012C290.617 301.494 290.754 298.999 290.325 296.644C289.935 294.504 289.03 292.287 288.233 290.293L280.614 293.34ZM282.028 300.106C281.723 300.673 281.338 301.028 280.547 301.375C279.562 301.807 278.274 302.091 276.158 302.527L277.815 310.564C281.332 309.839 286.554 309.018 289.256 303.99L282.028 300.106ZM276.158 302.527C272.949 303.189 268.613 304.067 263.837 306.642L267.731 313.865C271.352 311.913 274.634 311.22 277.815 310.564L276.158 302.527ZM263.813 306.655C254.437 311.789 250.347 319.697 247.182 325.7L254.441 329.527C257.641 323.458 260.768 317.678 267.755 313.852L263.813 306.655ZM247.182 325.7C246.331 327.314 245.576 328.743 244.791 330.046L251.82 334.28C252.748 332.741 253.612 331.098 254.441 329.527L247.182 325.7ZM244.802 330.028C239.186 339.241 229.853 345.277 218.652 349.564C207.429 353.859 194.819 356.222 183.058 358.409L184.558 366.476C196.184 364.314 209.545 361.836 221.585 357.228C233.648 352.611 244.87 345.682 251.809 334.299L244.802 330.028ZM183.046 358.411C162.843 362.229 146.168 360.988 114.325 358.272L113.628 366.449C145.298 369.149 163.087 370.534 184.57 366.474L183.046 358.411ZM114.343 358.274C110.318 357.913 104.388 357.322 98.2025 356.706L97.3888 364.871C103.556 365.486 109.535 366.081 113.61 366.447L114.343 358.274ZM97.7956 356.685H97.7952V364.891H97.7956V356.685ZM98.202 356.706C94.6173 356.348 90.9522 355.983 87.5409 355.651L86.7458 363.818C90.1461 364.149 93.8017 364.514 97.3883 364.871L98.202 356.706ZM87.5516 355.652C72.8155 354.179 59.1646 352.625 45.5252 350.747L44.4057 358.876C58.1737 360.772 71.9302 362.337 86.7351 363.817L87.5516 355.652ZM45.5194 350.746C8.18751 345.659 -17.0427 339.711 -37.6695 334.848L-39.5526 342.834C-18.8596 347.713 6.67906 353.735 44.4115 358.877L45.5194 350.746ZM-37.6695 334.848C-57.0629 330.275 -72.6767 326.583 -90.368 325.605L-90.8211 333.798C-73.9728 334.73 -59.0606 338.235 -39.5526 342.834L-37.6695 334.848ZM-90.3217 325.608C-90.7474 325.579 -91.2293 325.552 -91.7386 325.523L-92.2056 333.715C-91.6847 333.745 -91.2457 333.77 -90.8675 333.795L-90.3217 325.608ZM-91.7386 325.523C-97.4381 325.198 -109.513 324.498 -122.885 318.491L-126.248 325.977C-111.436 332.63 -98.0949 333.38 -92.2056 333.715L-91.7386 325.523ZM-122.889 318.49C-137.805 311.809 -145.451 302.597 -146.928 300.824L-153.232 306.078C-151.396 308.281 -142.795 318.565 -126.244 325.979L-122.889 318.49ZM-146.929 300.823L-146.936 300.815L-153.238 306.071L-153.231 306.079L-146.929 300.823ZM-150.087 303.443C-146.906 300.852 -146.905 300.852 -146.904 300.853C-146.904 300.853 -146.904 300.854 -146.904 300.854C-146.903 300.855 -146.903 300.855 -146.902 300.856C-146.902 300.857 -146.902 300.857 -146.902 300.856C-146.903 300.855 -146.905 300.852 -146.91 300.846C-146.919 300.835 -146.936 300.814 -146.96 300.783C-147.008 300.722 -147.086 300.623 -147.189 300.487C-147.396 300.217 -147.706 299.8 -148.096 299.25C-148.877 298.148 -149.972 296.511 -151.192 294.427C-153.639 290.245 -156.545 284.326 -158.435 277.343L-166.356 279.487C-164.226 287.356 -160.977 293.952 -158.275 298.571C-156.92 300.886 -155.692 302.722 -154.793 303.992C-154.343 304.627 -153.975 305.122 -153.712 305.466C-153.581 305.638 -153.476 305.772 -153.401 305.867C-153.364 305.914 -153.334 305.952 -153.311 305.98C-153.3 305.994 -153.291 306.006 -153.284 306.014C-153.28 306.019 -153.277 306.023 -153.274 306.026C-153.273 306.028 -153.272 306.029 -153.271 306.03C-153.27 306.031 -153.269 306.032 -153.269 306.032C-153.269 306.033 -153.268 306.034 -150.087 303.443ZM-158.437 277.337C-162.972 260.686 -162.785 224.944 -145.4 195.183L-152.486 191.044C-171.096 222.905 -171.406 260.949 -166.354 279.493L-158.437 277.337ZM-148.737 189.016C-155.347 188.683 -162.249 187.908 -169.386 186.565L-170.904 194.629C-163.384 196.044 -156.112 196.86 -149.149 197.211L-148.737 189.016ZM-169.382 186.566C-235.401 174.065 -256.674 118.525 -260.829 107.651L-268.494 110.579C-264.235 121.729 -241.549 181.253 -170.908 194.629L-169.382 186.566ZM-260.829 107.651C-260.997 107.211 -261.15 106.809 -261.277 106.49L-268.903 109.518C-268.801 109.776 -268.67 110.119 -268.494 110.579L-260.829 107.651ZM-261.278 106.486C-262.334 103.836 -260.348 100.835 -257.376 100.824L-257.407 92.6184C-266.031 92.6508 -272.149 101.373 -268.902 109.523L-261.278 106.486ZM-257.432 100.824C-257.068 100.828 -256.714 100.828 -256.383 100.829L-256.367 92.623C-256.703 92.6224 -257.026 92.6217 -257.351 92.6185L-257.432 100.824ZM-256.383 100.829C-253.918 100.833 -252.862 100.904 -251.994 101.314C-251.35 101.619 -250.251 102.406 -248.937 105.357L-241.441 102.02C-243.22 98.0236 -245.445 95.3335 -248.487 93.8956C-251.305 92.5636 -254.295 92.6268 -256.367 92.623L-256.383 100.829ZM-248.934 105.365C-244.345 115.613 -234.242 133.055 -218.875 146.678C-203.43 160.369 -182.348 170.437 -156.26 164.882L-157.969 156.856C-180.752 161.708 -199.274 153.087 -213.432 140.537C-227.667 127.918 -237.166 111.566 -241.444 102.012L-248.934 105.365ZM-156.261 164.882C-145.571 162.61 -136.88 160.435 -129.412 158.565L-131.405 150.605C-138.87 152.474 -147.434 154.617 -157.967 156.856L-156.261 164.882ZM-129.412 158.565C-113.016 154.461 -102.827 151.939 -89.7139 152.63L-89.2819 144.436C-103.811 143.67 -115.164 146.54 -131.405 150.605L-129.412 158.565ZM-88.4483 152.499C-47.6333 141.699 -2.84032 153.888 8.75962 157.069L10.9295 149.155C-0.578205 146 -47.3577 133.138 -90.5474 144.567L-88.4483 152.499ZM8.75392 157.068C24.3511 161.368 38.361 167.396 52.1438 173.331L55.3895 165.795C41.6657 159.884 27.1581 153.63 10.9352 149.157L8.75392 157.068ZM52.1438 173.331C81.0097 185.763 108.872 197.861 145.477 189.694L143.691 181.685C109.981 189.206 84.4223 178.298 55.3895 165.795L52.1438 173.331ZM145.447 189.7C152.177 188.252 157.463 186.462 160.877 185.182L157.996 177.499C154.845 178.68 149.956 180.337 143.721 181.678L145.447 189.7ZM160.508 177.38C158.747 176.903 157.052 176.467 155.471 176.061L153.427 184.008C155.014 184.416 156.66 184.839 158.365 185.301L160.508 177.38ZM155.471 176.061C151.145 174.948 147.939 174.111 145.817 173.195C144.757 172.737 144.358 172.417 144.271 172.328C144.257 172.314 144.363 172.418 144.456 172.655C144.557 172.911 144.584 173.176 144.563 173.387L136.399 172.554C136.167 174.832 137.085 176.717 138.406 178.067C139.595 179.283 141.138 180.113 142.564 180.729C145.416 181.959 149.367 182.963 153.427 184.008L155.471 176.061ZM144.563 173.387C144.464 174.356 143.664 174.344 145.088 173.631C146.441 172.953 148.535 172.265 151.823 171.203L149.301 163.394C146.28 164.37 143.461 165.268 141.415 166.293C139.44 167.282 136.753 169.087 136.399 172.554L144.563 173.387ZM151.823 171.203C155.675 169.959 160.697 168.338 166.678 165.843L163.519 158.27C157.878 160.623 153.138 162.155 149.301 163.394L151.823 171.203ZM166.674 165.845C183.474 158.861 191.628 151.75 197.098 146.966L191.697 140.789C186.557 145.284 179.17 151.763 163.524 158.268L166.674 165.845ZM197.098 146.966C201.656 142.98 203.065 142.015 205.291 142.113L205.651 133.915C199.559 133.647 195.633 137.346 191.697 140.789L197.098 146.966ZM209.35 139.351C209.454 139.048 209.559 138.746 209.664 138.443L201.91 135.757C201.805 136.06 201.699 136.367 201.592 136.676L209.35 139.351ZM209.68 138.397L209.68 138.397L201.895 135.802L201.895 135.802L209.68 138.397ZM209.664 138.442C210.37 136.405 211.111 134.27 211.724 132.048L203.814 129.866C203.282 131.791 202.63 133.678 201.911 135.756L209.664 138.442ZM211.699 132.135C212.451 129.627 213.139 127.141 213.661 124.79L205.651 123.009C205.189 125.089 204.563 127.363 203.839 129.778L211.699 132.135ZM213.746 124.227C213.986 121.222 215.722 103.202 228.775 87.2365L222.422 82.0427C207.771 99.9627 205.85 120.031 205.566 123.572L213.746 124.227ZM201.426 74.2216C210.204 78.7185 218.134 82.8365 222.653 87.4961L228.543 81.7831C222.868 75.931 213.486 71.1801 205.168 66.9185L201.426 74.2216ZM174.048 51.1133C175.089 56.81 179.597 61.1412 184.375 64.5292C189.287 68.0122 195.513 71.1922 201.426 74.2216L205.168 66.9185C199.102 63.8109 193.455 60.9081 189.122 57.8355C184.655 54.6679 182.547 51.9706 182.121 49.639L174.048 51.1133ZM174.277 45.2979C173.922 46.4358 173.481 48.5474 174.078 51.2582L182.092 49.4941C181.884 48.5499 182.051 47.9336 182.11 47.7422L174.277 45.2979Z" fill="#1F160D"/>
<path d="M304.684 142.935C315.27 151.715 344.4 141.048 347.108 127.18C347.272 126.277 347.518 124.39 346.452 120.369C342.595 106.419 328.563 90.3359 317.731 92.3053C302.715 95.0132 292.54 132.842 304.766 142.935H304.684Z" fill="#DAAD89"/>
<path d="M419.398 194.96L410.536 185.852C410.536 185.852 401.181 180.928 403.807 194.96C406.433 208.992 409.387 207.105 409.387 207.105L419.398 194.96Z" fill="black" stroke="#231F20" stroke-width="8.20581" stroke-miterlimit="10"/>
<path d="M94.725 342.373C98.5712 346.894 140.118 392.046 149.075 398.309C154.221 401.826 153.539 400.702 160.229 405.143C170.194 411.705 178.477 418.437 185.203 424.654C185.666 425.031 186.014 425.389 186.544 425.72C192.71 430.126 199.515 434.589 207.092 439.013C223.348 448.294 238.84 454.609 252.199 459.009C254.266 459.969 257.45 460.953 261.222 460.627C268.424 459.914 273.118 454.448 277.657 449.19C278.19 448.52 278.79 447.802 279.458 447.037C284.362 440.725 282.835 431.491 276.367 426.794C250.222 407.899 239.324 388.791 234.249 374.028C229.173 359.264 230.848 356.499 224.744 300.464C222.626 281.044 219.422 280.439 217.757 270.001" fill="#F9F7F2"/>
<path d="M94.725 342.373C98.5712 346.894 140.118 392.046 149.075 398.309C154.221 401.826 153.539 400.702 160.229 405.143C170.194 411.705 178.477 418.437 185.203 424.654C185.666 425.031 186.014 425.389 186.544 425.72C192.71 430.126 199.515 434.589 207.092 439.013C223.348 448.294 238.84 454.609 252.199 459.009C254.266 459.969 257.45 460.953 261.222 460.627C268.424 459.914 273.118 454.448 277.657 449.19C278.19 448.52 278.79 447.802 279.458 447.037C284.362 440.725 282.835 431.491 276.367 426.794C250.222 407.899 239.324 388.791 234.249 374.028C229.173 359.264 230.848 356.499 224.744 300.464C222.626 281.044 219.422 280.439 217.757 270.001" stroke="#1F160D" stroke-width="8.20581" stroke-miterlimit="10" stroke-linecap="round"/>
<path d="M124.179 299.722L136.549 318.472" stroke="#D6CCBF" stroke-width="8.20581" stroke-miterlimit="10" stroke-linecap="round"/>
<path d="M133.82 289.192L152.309 301.875" stroke="#D6CCBF" stroke-width="8.20581" stroke-miterlimit="10" stroke-linecap="round"/>
<path d="M326.594 143.264C326.594 141.622 327.981 138.212 332.904 135.012C338.648 131.32 342.677 131.365 344.4 132.022C348.503 133.581 350.555 143.674 345.959 148.105C343.744 150.321 340.626 150.403 339.149 150.403C333.158 150.567 326.512 146.71 326.594 143.264Z" fill="#231F20" stroke="#231F20" stroke-width="8.20581" stroke-miterlimit="10"/>
<path d="M221.335 76.1855C229.449 82.271 225.661 79.5667 231.478 84.2995C235.535 88.3565 245.677 80.2428 245.677 80.2428C254.309 73.8351 252.414 75.0645 253.791 74.1571C261.079 69.502 263.591 73.3519 246.568 54.6671C243.756 51.6015 240.12 47.6708 234.071 44.2638C212.252 31.9846 181.979 39.9822 180.566 48.5982C179.741 53.3857 196.993 64.0144 209.164 70.1L221.335 76.1855Z" fill="#DAAD89"/>
<path d="M-164.079 270.922C-162.051 281.065 -157.994 287.15 -153.937 295.264C-147.801 307.537 -177.041 314.116 -181.948 316.472C-182.322 316.658 -182.695 316.845 -182.76 316.895C-192.708 321.3 -211.977 326.641 -215.783 328.145C-218.239 329.12 -220.346 330.545 -220.346 330.545C-220.54 330.695 -220.799 330.895 -221.123 331.146C-230.748 337.977 -236.702 351.023 -236.702 351.023C-239.98 358.294 -249.337 372.429 -267.64 396.678C-272.433 403.063 -273.56 411.241 -270.407 417.857C-268.764 421.319 -266.871 425.103 -264.983 428.479C-263.698 430.675 -261.711 434.179 -257.572 435.916C-256.635 436.323 -255.734 436.551 -255.455 436.644C-245.098 438.921 -208.097 389.191 -178.582 382.507C-177.506 382.292 -175.827 381.919 -174.278 381.646C-160.872 379.299 -154.402 380.569 -142.675 379.933C-138.526 379.809 -132.762 379.363 -125.963 378.114C-125.963 378.114 -123.158 377.59 -120.568 376.923C-112.632 375.002 -51.0571 341.277 -32.2262 328.145" fill="#F9F7F2"/>
<path d="M-164.079 270.922C-162.051 281.065 -157.994 287.15 -153.937 295.264C-147.801 307.537 -177.041 314.116 -181.948 316.472C-182.322 316.658 -182.695 316.845 -182.76 316.895C-192.708 321.3 -211.977 326.641 -215.783 328.145C-218.239 329.12 -220.346 330.545 -220.346 330.545C-220.54 330.695 -220.799 330.895 -221.123 331.146C-230.748 337.977 -236.702 351.023 -236.702 351.023C-239.98 358.294 -249.337 372.429 -267.64 396.678C-272.433 403.063 -273.56 411.241 -270.407 417.857C-268.764 421.319 -266.871 425.103 -264.983 428.479C-263.698 430.675 -261.711 434.179 -257.572 435.916C-256.635 436.323 -255.734 436.551 -255.455 436.644C-245.098 438.921 -208.097 389.191 -178.582 382.507C-177.506 382.292 -175.827 381.919 -174.278 381.646C-160.872 379.299 -154.402 380.569 -142.675 379.933C-138.526 379.809 -132.762 379.363 -125.963 378.114C-125.963 378.114 -123.158 377.59 -120.568 376.923C-112.632 375.002 -51.0571 341.277 -32.2262 328.145L-3.82646 310.396" stroke="#1F160D" stroke-width="8.20581" stroke-miterlimit="10" stroke-linecap="round"/>
<path d="M100.82 438.054C122.132 427.167 114.705 420.791 108.327 418.964C101.949 417.137 94.2294 430.48 95.051 423.743C95.8725 417.006 94.8428 405.297 84.1518 412.361C73.4607 419.425 72.4769 436.764 73.3214 444.551C73.6077 446.921 79.5084 448.94 100.82 438.054Z" fill="#F8D4D6" stroke="black" stroke-width="5.73056" stroke-linecap="round"/>
</svg>
